<?xml version="1.0" encoding="UTF-8" standalone="no"?>
<!DOCTYPE svg PUBLIC "-//W3C//DTD SVG 1.1//EN" "http://www.w3.org/Graphics/SVG/1.1/DTD/svg11.dtd">
<svg width="100%" height="100%" viewBox="0 0 1464 268" version="1.1" xmlns="http://www.w3.org/2000/svg" xmlns:xlink="http://www.w3.org/1999/xlink" xml:space="preserve" xmlns:serif="http://www.serif.com/" style="fill-rule:evenodd;clip-rule:evenodd;">
    <g id="g70" transform="matrix(1,0,0,1,-33.4052,-20)">
        <g id="path14" transform="matrix(1,0,0,1.05017,580,6.52775)">
            <path d="M910.454,216.93C908.472,216.93 906.849,216.597 905.583,215.935C904.597,214.231 904.101,212.144 904.101,209.664C904.101,207.189 904.597,205.102 905.583,203.397C906.849,202.79 908.472,202.491 910.454,202.491C912.433,202.491 914.058,202.79 915.319,203.397C916.256,204.88 916.721,206.971 916.721,209.664C916.721,212.361 916.255,214.452 915.319,215.935C914.058,216.597 912.433,216.93 910.454,216.93Z" style="fill:rgb(179,179,179);fill-rule:nonzero;"/>
        </g>
        <g id="path16" transform="matrix(1,0,0,1.05017,580,6.52775)">
            <path d="M892.714,177.074L891.969,177.074C888.891,177.074 886.583,177.395 885.042,178.024C883.499,178.66 882.73,180.007 882.73,182.067C882.73,184.132 883.736,185.589 885.742,186.443C887.753,187.297 890.956,187.718 895.356,187.718C899.754,187.718 902.878,187.102 904.718,185.864C906.562,184.627 907.481,182.717 907.481,180.132C907.481,177.548 906.298,174.52 903.934,171.056C904.485,170.063 905.46,169.104 906.862,168.17C908.265,167.232 909.573,166.627 910.783,166.352C912.708,168.223 914.249,170.588 915.403,173.45C916.559,176.308 917.136,179.249 917.136,182.277C917.136,188.051 915.184,192.492 911.278,195.602C907.376,198.71 901.914,200.26 894.902,200.26C887.886,200.26 882.58,198.478 878.975,194.898C875.375,191.326 873.573,187.103 873.573,182.235C873.573,177.369 874.837,173.45 877.368,170.479C879.901,167.508 883.141,166.022 887.101,166.022C889.083,166.022 890.58,166.562 891.599,167.631C892.619,168.702 893.125,170.221 893.125,172.168C893.126,174.124 892.989,175.76 892.714,177.074Z" style="fill:rgb(179,179,179);fill-rule:nonzero;"/>
        </g>
        <g id="path18" transform="matrix(1,0,0,1.05017,580,6.52775)">
            <path d="M878.36,134.174C882.317,130.213 887.972,128.233 895.313,128.233C902.657,128.233 908.305,130.213 912.266,134.174C915.51,137.423 917.136,141.738 917.136,147.13C917.136,152.523 915.51,156.834 912.266,160.082C908.305,164.044 902.657,166.021 895.313,166.021C887.972,166.021 882.317,164.043 878.36,160.082C875.171,156.834 873.573,152.522 873.573,147.13C873.573,141.738 875.171,137.423 878.36,134.174ZM886.032,152.118C888.231,152.974 891.34,153.397 895.356,153.397C899.368,153.397 902.462,152.974 904.636,152.118C906.806,151.264 907.893,149.606 907.893,147.13C907.893,144.656 906.806,142.99 904.636,142.139C902.462,141.283 899.367,140.858 895.356,140.858C891.339,140.858 888.231,141.283 886.032,142.139C883.832,142.991 882.73,144.657 882.73,147.13C882.73,149.606 883.832,151.265 886.032,152.118Z" style="fill:rgb(179,179,179);fill-rule:nonzero;"/>
        </g>
        <g id="path20" transform="matrix(1,0,0,1.05017,580,6.52775)">
            <path d="M890.981,103.238C887.019,103.238 885.042,104.531 885.042,107.115C885.094,108.986 886.142,110.967 888.175,113.054L915.897,113.054C916.226,114.761 916.393,116.782 916.393,119.119C916.393,121.46 916.226,123.534 915.897,125.347L874.809,125.347L874.234,124.771L874.234,120.15C874.234,116.742 875.968,114.541 879.431,113.55C875.856,109.591 874.07,105.794 874.07,102.167C874.07,97.708 875.996,94.491 879.845,92.513C875.995,88.277 874.07,84.206 874.07,80.3C874.07,76.398 875.28,73.508 877.701,71.64C880.119,69.769 883.281,68.831 887.186,68.831L905.749,68.831C909.158,68.831 911.884,68.173 913.919,66.852C915.679,68.997 916.56,71.404 916.56,74.072C916.56,76.738 915.925,78.582 914.664,79.597C913.394,80.618 911.473,81.123 908.886,81.123L890.899,81.123C886.994,81.123 885.044,82.477 885.044,85.166C885.044,86.873 886.114,88.799 888.259,90.943L915.899,90.943C916.228,92.705 916.395,94.736 916.395,97.048C916.395,99.357 916.228,101.419 915.899,103.236L890.981,103.236L890.981,103.238Z" style="fill:rgb(179,179,179);fill-rule:nonzero;"/>
        </g>
        <g id="g68" transform="matrix(1,0,0,1,-6,14)">
            <g id="g62">
                <g id="g34">
                    <clipPath id="_clip1">
                        <path id="rect30" d="M524,64L524,6L541.028,6L577,45.425L577,64"/>
                    </clipPath>
                    <g clip-path="url(#_clip1)">
                        <rect x="429" y="6" width="218" height="38" style="fill:rgb(27,93,32);fill-rule:nonzero;"/>
                    </g>
                    <clipPath id="_clip2">
                        <path id="rect32" d="M524,64L524,6L541.028,6L577,45.425L577,64"/>
                    </clipPath>
                    <g clip-path="url(#_clip2)">
                        <rect x="429" y="44" width="218" height="31" style="fill:rgb(46,125,50);fill-rule:nonzero;"/>
                    </g>
                </g>
                <g id="g60">
                    <g id="g58">
                        <clipPath id="_clip3">
                            <path d="M577,257.213C577,267.458 566.745,274 556.499,274L387.882,274C377.623,274 369,267.458 369,257.213L369,28.263C369,18.019 377.623,6 387.882,6L515,6L515,73L577,73L577,257.213Z"/>
                        </clipPath>
                        <g clip-path="url(#_clip3)">
                            <rect id="rect42" x="368" y="6" width="212" height="33" style="fill:rgb(27,93,32);fill-rule:nonzero;"/>
                            <rect id="rect44" x="368" y="39" width="212" height="33" style="fill:rgb(46,125,50);fill-rule:nonzero;"/>
                            <rect id="rect46" x="368" y="72" width="212" height="32" style="fill:rgb(55,142,59);fill-rule:nonzero;"/>
                            <rect id="rect48" x="368" y="104" width="212" height="36" style="fill:rgb(67,160,71);fill-rule:nonzero;"/>
                            <rect id="rect50" x="368" y="140" width="212" height="36" style="fill:rgb(75,175,80);fill-rule:nonzero;"/>
                            <rect id="rect52" x="368" y="175" width="212" height="35" style="fill:rgb(102,187,106);fill-rule:nonzero;"/>
                            <rect id="rect54" x="368" y="210" width="212" height="36" style="fill:rgb(129,200,132);fill-rule:nonzero;"/>
                            <rect id="rect56" x="368" y="246" width="212" height="31" style="fill:rgb(165,215,167);fill-rule:nonzero;"/>
                            <rect id="rect847" x="574.055" y="45.425" width="2.945" height="9.558" style="fill:rgb(144,202,249);fill-rule:nonzero;stroke:rgb(147,200,106);stroke-width:1px;"/>
                        </g>
                    </g>
                </g>
            </g>
            <g id="g66" transform="matrix(1,0,0,1.01685,0,-3.68579)">
                <path id="path64" d="M417.316,184.82L475.975,132.131C478.956,129.434 481.944,126.375 484.924,122.968C487.915,119.555 489.406,115.571 489.406,111.015C489.406,105.896 487.561,101.881 483.863,98.97C480.163,96.053 475.828,94.602 470.852,94.602C464.878,94.602 460.223,96.443 456.878,100.137C453.537,103.84 451.654,108.388 451.227,113.787L419.235,111.442C419.658,103.627 421.292,96.834 424.141,91.08C426.982,85.32 430.749,80.518 435.442,76.674C440.136,72.835 445.642,69.961 451.972,68.042C458.302,66.121 465.164,65.16 472.555,65.16C479.383,65.16 485.781,66.121 491.752,68.042C497.725,69.961 502.909,72.808 507.32,76.57C511.726,80.338 515.18,85.066 517.668,90.752C520.153,96.442 521.403,103.055 521.403,110.598C521.403,115.427 520.899,119.801 519.909,123.711C518.912,127.623 517.522,131.178 515.749,134.372C513.966,137.568 511.872,140.524 509.458,143.226C507.034,145.92 504.406,148.561 501.562,151.117L455.703,190.579L522.683,190.579L522.683,218.733L417.316,218.733L417.316,184.82Z" style="fill:white;fill-rule:nonzero;"/>
            </g>
        </g>
        <path id="path936" d="M84.005,198.295C79.899,198.295 76.819,198.222 74.765,198.075L65.085,230.635C61.712,231.515 56.799,231.955 50.345,231.955C43.892,231.955 38.685,231.149 34.725,229.535L33.405,227.775L82.245,80.155C87.525,79.275 94.052,78.835 101.825,78.835C109.599,78.835 115.979,79.349 120.965,80.375L168.485,228.215C163.645,231.002 157.852,232.395 151.105,232.395C144.359,232.395 139.519,231.149 136.585,228.655C133.652,226.015 131.232,221.175 129.325,214.135L124.705,198.075C122.652,198.222 119.499,198.295 115.245,198.295L84.005,198.295ZM82.465,171.895L91.705,171.675L108.645,171.675C109.379,171.675 110.699,171.749 112.605,171.895L117.005,171.895L100.285,111.175L99.185,111.175C97.865,118.362 94.345,131.855 88.625,151.655L82.465,171.895Z" style="fill:rgb(102,102,102);fill-rule:nonzero;"/>
        <path id="path938" d="M227.654,78.835C243.787,78.835 256.694,83.235 266.374,92.035C276.054,100.835 280.894,113.669 280.894,130.535C280.894,147.255 275.98,160.089 266.154,169.035C256.474,177.982 243.64,182.455 227.654,182.455L209.394,182.455L209.394,230.415C204.994,231.295 199.347,231.735 192.454,231.735C185.56,231.735 179.987,231.295 175.734,230.415L175.734,81.255L177.274,79.715C201.914,79.129 218.707,78.835 227.654,78.835ZM209.394,104.575L209.394,157.155C213.647,157.009 218.707,156.935 224.574,156.935C230.44,156.935 235.06,155.469 238.434,152.535C241.954,149.455 244.154,146.155 245.034,142.635C246.06,139.115 246.574,134.569 246.574,128.995C246.574,123.275 244.96,117.849 241.734,112.715C238.654,107.435 233.52,104.795 226.334,104.795C219.147,104.795 213.5,104.722 209.394,104.575Z" style="fill:rgb(102,102,102);fill-rule:nonzero;"/>
        <path id="path940" d="M292.8,230.415L292.8,80.155C297.2,79.275 302.773,78.835 309.52,78.835C316.413,78.835 322.06,79.275 326.46,80.155L326.46,230.415C322.06,231.295 316.413,231.735 309.52,231.735C302.773,231.735 297.2,231.295 292.8,230.415Z" style="fill:rgb(102,102,102);fill-rule:nonzero;"/>
        <path id="path942" d="M682.162,138.895L682.162,136.695C682.162,127.455 680.256,119.609 676.442,113.155C672.776,106.702 666.249,103.475 656.862,103.475C647.476,103.475 640.582,107.875 636.182,116.675C631.782,125.475 629.582,138.235 629.582,154.955C629.582,171.529 632.296,183.922 637.722,192.135C643.149,200.349 650.996,204.455 661.262,204.455C671.676,204.455 683.996,199.249 698.222,188.835C701.596,191.182 704.822,194.482 707.902,198.735C711.129,202.842 713.109,206.729 713.842,210.395C707.242,216.995 698.589,222.569 687.882,227.115C677.176,231.515 666.689,233.715 656.422,233.715C646.302,233.715 637.722,232.249 630.682,229.315C623.789,226.235 618.069,222.275 613.522,217.435C609.122,212.449 605.456,206.509 602.522,199.615C597.096,187.002 594.382,172.409 594.382,155.835C594.382,129.582 600.322,109.855 612.202,96.655C624.229,83.455 639.042,76.855 656.642,76.855C674.242,76.855 688.176,81.182 698.442,89.835C708.856,98.489 714.062,109.269 714.062,122.175C714.062,134.495 707.682,140.655 694.922,140.655C690.816,140.655 686.562,140.069 682.162,138.895Z" style="fill:rgb(102,102,102);fill-rule:nonzero;"/>
        <path id="path944" d="M780.415,102.815C760.615,102.815 750.715,120.342 750.715,155.395C750.715,190.302 760.615,207.755 780.415,207.755C800.362,207.755 810.335,190.302 810.335,155.395C810.335,120.342 800.362,102.815 780.415,102.815ZM739.275,219.855C723.582,206.802 715.735,185.315 715.735,155.395C715.735,125.329 723.582,103.769 739.275,90.715C750.569,81.475 764.355,76.855 780.635,76.855C796.915,76.855 810.702,81.475 821.995,90.715C837.689,103.769 845.535,125.329 845.535,155.395C845.535,185.315 837.689,206.802 821.995,219.855C810.702,229.095 796.915,233.715 780.635,233.715C764.355,233.715 750.569,229.095 739.275,219.855Z" style="fill:rgb(102,102,102);fill-rule:nonzero;"/>
        <path id="path946" d="M975.169,78.835L976.709,80.155L976.709,229.755C971.136,231.075 964.536,231.735 956.909,231.735C949.429,231.735 942.756,231.295 936.889,230.415L900.369,149.895C894.209,135.229 890.029,124.889 887.829,118.875L886.949,119.095C888.709,139.922 889.589,161.262 889.589,183.115L889.589,230.415C885.189,231.295 879.909,231.735 873.749,231.735C867.736,231.735 862.602,231.295 858.349,230.415L858.349,80.815C863.629,79.495 870.009,78.835 877.489,78.835C885.116,78.835 891.862,79.275 897.729,80.155L933.369,160.455L947.229,193.675L948.109,193.455C946.349,173.215 945.469,152.022 945.469,129.875L945.469,99.075C945.469,91.742 946.936,86.535 949.869,83.455C952.802,80.375 957.569,78.835 964.169,78.835L975.169,78.835Z" style="fill:rgb(102,102,102);fill-rule:nonzero;"/>
        <path id="path948" d="M1050.53,202.255L1080.45,80.155C1084.26,79.275 1089.1,78.835 1094.97,78.835C1100.98,78.835 1106.12,79.569 1110.37,81.035L1111.91,83.015L1070.33,230.415C1062.41,231.295 1054.41,231.735 1046.35,231.735C1038.28,231.735 1032.41,230.709 1028.75,228.655C1025.23,226.602 1022.59,222.495 1020.83,216.335L983.648,83.235C991.568,79.862 998.168,78.175 1003.45,78.175C1008.73,78.175 1012.76,79.495 1015.55,82.135C1018.34,84.775 1020.53,89.029 1022.15,94.895L1039.75,159.795C1042.68,170.062 1045.54,183.262 1048.33,199.395C1048.62,201.302 1049.36,202.255 1050.53,202.255Z" style="fill:rgb(102,102,102);fill-rule:nonzero;"/>
        <path id="path950" d="M1151.67,187.955L1151.45,203.135L1151.45,203.355C1157.9,203.062 1163.26,202.915 1167.51,202.915L1219.43,202.915C1219.43,208.195 1219.21,212.155 1218.77,214.795C1216.72,225.649 1209.53,231.075 1197.21,231.075L1137.81,231.075C1131.8,231.075 1127.03,229.315 1123.51,225.795C1120.14,222.275 1118.45,217.435 1118.45,211.275L1118.45,81.695L1119.99,80.155L1213.93,80.155C1214.66,83.529 1215.03,87.782 1215.03,92.915C1215.03,98.049 1214.15,103.182 1212.39,108.315L1151.45,108.315L1151.67,123.935L1151.67,141.315C1155.49,141.169 1160.4,141.095 1166.41,141.095L1200.95,141.095C1202.27,144.615 1202.93,149.162 1202.93,154.735C1202.93,160.162 1202.27,164.782 1200.95,168.595L1151.67,168.595L1151.67,187.955Z" style="fill:rgb(102,102,102);fill-rule:nonzero;"/>
        <path id="path952" d="M1338.77,126.355C1338.77,136.182 1336.06,144.689 1330.63,151.875C1325.35,159.062 1319.12,163.975 1311.93,166.615C1319.41,169.255 1324.98,175.929 1328.65,186.635L1335.69,206.215C1338.18,213.255 1341.78,218.609 1346.47,222.275C1344.27,225.209 1341.12,227.629 1337.01,229.535C1332.9,231.442 1328.28,232.395 1323.15,232.395C1318.02,232.395 1314.06,230.929 1311.27,227.995C1308.48,225.062 1305.84,220.002 1303.35,212.815L1294.99,188.835C1293.52,184.289 1291.32,180.769 1288.39,178.275C1285.6,175.782 1281.42,174.535 1275.85,174.535L1265.51,174.535L1265.51,230.415C1261.11,231.295 1255.54,231.735 1248.79,231.735C1242.04,231.735 1236.54,231.295 1232.29,230.415L1232.29,81.255L1233.83,79.715C1258.47,79.129 1275.78,78.835 1285.75,78.835C1301.74,78.835 1314.57,82.869 1324.25,90.935C1333.93,98.855 1338.77,110.662 1338.77,126.355ZM1265.51,104.135L1265.51,148.795C1275.19,148.502 1281.06,148.355 1283.11,148.355C1297.34,148.355 1304.45,141.022 1304.45,126.355C1304.45,111.689 1297.34,104.355 1283.11,104.355C1275.78,104.355 1269.91,104.282 1265.51,104.135Z" style="fill:rgb(102,102,102);fill-rule:nonzero;"/>
        <path id="path954" d="M1407.79,107.875L1408.01,124.155L1408.01,230.415C1403.47,231.295 1397.82,231.735 1391.07,231.735C1384.47,231.735 1378.9,231.295 1374.35,230.415L1374.35,124.155L1374.57,107.875L1374.35,107.875L1360.71,108.095L1337.39,108.095C1336.66,103.842 1336.29,99.222 1336.29,94.235C1336.29,89.102 1336.66,84.409 1337.39,80.155L1445.19,80.155C1446.37,83.969 1446.95,88.442 1446.95,93.575C1446.95,98.709 1445.56,102.449 1442.77,104.795C1439.99,106.995 1435.51,108.095 1429.35,108.095L1421.65,108.095L1408.01,107.875L1407.79,107.875Z" style="fill:rgb(102,102,102);fill-rule:nonzero;"/>
    </g>
</svg>
