<?xml version="1.0" encoding="UTF-8" standalone="no"?>
<!DOCTYPE svg PUBLIC "-//W3C//DTD SVG 1.1//EN" "http://www.w3.org/Graphics/SVG/1.1/DTD/svg11.dtd">
<svg width="790px" height="118px" version="1.1" xmlns="http://www.w3.org/2000/svg" xmlns:xlink="http://www.w3.org/1999/xlink" xml:space="preserve" xmlns:serif="http://www.serif.com/" style="fill-rule:evenodd;clip-rule:evenodd;stroke-linejoin:round;stroke-miterlimit:2;">
    <path d="M103.454,59.35C97.829,54.397 96.339,47.959 96.339,42.376C96.339,38.464 97.543,31.678 103.053,26.615C107.183,22.813 112.636,20.511 121.188,20.511C124.746,20.511 126.871,20.74 129.511,21.089C131.688,21.376 133.527,21.897 135.251,22.069C135.881,22.121 136.11,22.412 136.11,22.756C136.11,23.22 135.938,23.907 135.824,25.923C135.709,27.824 135.767,30.985 135.652,32.136C135.595,33.001 135.48,33.459 134.964,33.459C134.506,33.459 134.386,33.001 134.386,32.194C134.334,30.407 133.589,28.397 132.152,26.902C130.256,24.886 125.782,23.334 120.501,23.334C115.506,23.334 112.235,24.6 109.709,26.902C105.522,30.756 104.428,36.22 104.428,41.803C104.428,55.496 114.819,62.282 122.511,62.282C127.615,62.282 130.714,61.709 133.011,59.058C133.99,57.97 134.735,56.303 134.964,55.266C135.136,54.345 135.251,54.11 135.709,54.11C136.11,54.11 136.225,54.516 136.225,54.975C136.225,55.667 135.537,60.673 134.964,62.631C134.678,63.605 134.449,63.891 133.47,64.298C131.178,65.22 126.813,65.621 123.142,65.621C115.282,65.621 108.678,63.891 103.454,59.35" style="fill:rgb(106,111,114);fill-rule:nonzero;"/>
    <path d="M143.459,46.584C143.459,38.355 148.886,27.725 163.293,27.725C175.251,27.725 182.694,34.704 182.694,45.725C182.694,56.746 175.006,65.459 162.813,65.459C149.032,65.459 143.459,55.11 143.459,46.584M175.97,47.506C175.97,36.72 169.777,30.032 161.902,30.032C156.376,30.032 150.084,33.11 150.084,45.095C150.084,55.11 155.61,63.053 164.829,63.053C168.188,63.053 175.97,61.417 175.97,47.506" style="fill:rgb(106,111,114);fill-rule:nonzero;"/>
    <path d="M199.892,50.824C199.892,56.985 199.892,60.308 200.902,61.173C201.72,61.897 202.964,62.23 206.714,62.23C209.256,62.23 211.131,62.183 212.329,60.886C212.907,60.261 213.485,58.912 213.579,57.996C213.626,57.563 213.725,57.277 214.11,57.277C214.444,57.277 214.49,57.511 214.49,58.095C214.49,58.621 214.152,62.23 213.772,63.626C213.485,64.683 213.246,64.928 210.746,64.928C203.829,64.928 200.662,64.636 196.772,64.636C195.668,64.636 192.642,64.782 190.72,64.782C190.1,64.782 189.761,64.636 189.761,64.298C189.761,64.058 189.954,63.912 190.532,63.912C191.251,63.912 191.824,63.819 192.256,63.72C193.22,63.527 193.459,62.47 193.652,61.074C193.892,59.053 193.892,55.251 193.892,50.819L193.892,42.345C193.892,35.032 193.892,33.678 193.793,32.141C193.699,30.506 193.313,29.735 191.73,29.397C191.345,29.303 190.772,29.256 190.147,29.256C189.615,29.256 189.329,29.157 189.329,28.824C189.329,28.485 189.662,28.391 190.386,28.391C192.642,28.391 195.668,28.537 196.964,28.537C198.115,28.537 201.621,28.391 203.496,28.391C204.168,28.391 204.506,28.485 204.506,28.824C204.506,29.157 204.214,29.256 203.636,29.256C203.11,29.256 202.345,29.303 201.767,29.397C200.47,29.641 200.084,30.459 199.99,32.141C199.892,33.678 199.892,35.032 199.892,42.345L199.892,50.824Z" style="fill:rgb(106,111,114);fill-rule:nonzero;"/>
    <path d="M223.756,42.355C223.756,35.037 223.756,33.688 223.662,32.152C223.563,30.516 223.178,29.74 221.595,29.407C221.209,29.313 220.392,29.266 219.72,29.266C219.194,29.266 218.907,29.173 218.907,28.834C218.907,28.501 219.24,28.402 219.959,28.402C222.506,28.402 225.532,28.542 226.97,28.542C228.126,28.542 231.152,28.402 232.881,28.402C233.6,28.402 233.933,28.501 233.933,28.834C233.933,29.173 233.647,29.266 233.168,29.266C232.642,29.266 232.35,29.313 231.777,29.407C230.48,29.647 230.095,30.47 230.001,32.152C229.902,33.688 229.902,35.037 229.902,42.355L229.902,49.095C229.902,56.074 231.293,59.011 233.647,60.938C235.808,62.714 238.017,62.907 239.647,62.907C241.767,62.907 244.355,62.235 246.277,60.313C248.918,57.662 249.063,53.334 249.063,48.376L249.063,42.355C249.063,35.042 249.063,33.688 248.97,32.152C248.871,30.516 248.485,29.746 246.902,29.407C246.517,29.313 245.699,29.266 245.173,29.266C244.647,29.266 244.355,29.173 244.355,28.834C244.355,28.501 244.694,28.402 245.365,28.402C247.813,28.402 250.839,28.542 250.886,28.542C251.464,28.542 254.49,28.402 256.36,28.402C257.032,28.402 257.371,28.501 257.371,28.834C257.371,29.173 257.084,29.266 256.506,29.266C255.975,29.266 255.688,29.313 255.11,29.407C253.819,29.647 253.433,30.47 253.334,32.152C253.24,33.688 253.24,35.042 253.24,42.355L253.24,47.506C253.24,52.855 252.714,58.532 248.678,61.996C245.267,64.933 241.813,65.464 238.688,65.464C236.147,65.464 231.532,65.319 228.032,62.141C225.579,59.928 223.756,56.365 223.756,49.381L223.756,42.355Z" style="fill:rgb(106,111,114);fill-rule:nonzero;"/>
    <path d="M268.886,28.589C269.032,27.772 269.319,27.334 269.704,27.334C270.089,27.334 270.376,27.574 271.001,28.829L284.11,55.975L297.173,28.49C297.506,27.72 297.793,27.334 298.23,27.334C298.662,27.334 298.949,27.819 299.095,28.829L303.464,58.574C303.897,61.61 304.376,63.001 305.819,63.438C307.209,63.871 308.173,63.917 308.798,63.917C309.225,63.917 309.563,63.964 309.563,64.256C309.563,64.636 308.985,64.787 308.313,64.787C307.115,64.787 300.485,64.636 298.569,64.496C297.464,64.402 297.173,64.256 297.173,63.964C297.173,63.73 297.365,63.579 297.699,63.438C297.99,63.339 298.131,62.714 297.944,61.365L295.058,40.183L294.871,40.183L284.397,62.042C283.293,64.308 283.053,64.735 282.621,64.735C282.188,64.735 281.709,63.772 280.944,62.334C279.793,60.115 275.996,52.751 275.418,51.402C274.985,50.397 272.105,44.329 270.423,40.72L270.235,40.72L267.735,59.876C267.642,60.746 267.589,61.371 267.589,62.141C267.589,63.053 268.214,63.49 269.032,63.683C269.897,63.871 270.569,63.917 271.048,63.917C271.433,63.917 271.772,64.016 271.772,64.256C271.772,64.688 271.339,64.787 270.621,64.787C268.6,64.787 266.438,64.636 265.574,64.636C264.662,64.636 262.36,64.787 260.824,64.787C260.339,64.787 259.954,64.688 259.954,64.256C259.954,64.016 260.24,63.917 260.725,63.917C261.11,63.917 261.444,63.917 262.162,63.777C263.511,63.485 263.892,61.61 264.131,59.97L268.918,28.589L268.886,28.589Z" style="fill:rgb(106,111,114);fill-rule:nonzero;"/>
    <path d="M320.121,42.355C320.121,35.037 320.121,33.688 320.027,32.152C319.928,30.516 319.543,29.74 317.959,29.407C317.574,29.313 316.761,29.261 316.089,29.261C315.558,29.261 315.272,29.167 315.272,28.834C315.272,28.496 315.605,28.402 316.329,28.402C318.876,28.402 321.902,28.542 322.86,28.542C325.214,28.542 327.084,28.402 328.72,28.402C337.412,28.402 338.949,33.069 338.949,35.621C338.949,39.569 336.688,41.923 334.048,44.042C337.99,45.391 342.787,48.808 342.787,54.438C342.787,59.589 338.808,64.933 329.97,64.933C328.813,64.933 324.449,64.641 323.006,64.641C321.902,64.641 318.876,64.787 316.954,64.787C316.334,64.787 315.996,64.641 315.996,64.308C315.996,64.063 316.188,63.917 316.761,63.917C317.48,63.917 318.058,63.824 318.49,63.725C319.449,63.532 319.688,62.475 319.881,61.079C320.121,59.058 320.121,55.256 320.121,50.824L320.121,42.355ZM325.881,43.173C325.881,43.558 326.027,43.652 326.214,43.699C326.647,43.792 327.371,43.845 328.475,43.845C330.063,43.845 331.115,43.652 331.933,42.933C333.183,41.917 333.902,40.188 333.902,37.829C333.902,34.605 332.032,30.365 327.902,30.365C327.23,30.365 326.798,30.365 326.319,30.464C325.98,30.558 325.886,30.751 325.886,31.282L325.881,43.173ZM332.22,47.022C331.214,46.298 330.11,45.959 328.235,45.865C327.371,45.819 326.892,45.819 326.173,45.819C325.98,45.819 325.881,45.917 325.881,46.157L325.881,57.563C325.881,60.74 326.027,61.563 327.563,62.183C328.86,62.714 329.964,62.761 331.069,62.761C333.23,62.761 336.876,61.605 336.876,56.6C336.881,53.615 335.871,49.574 332.22,47.022" style="fill:rgb(106,111,114);fill-rule:nonzero;"/>
    <path d="M353.454,42.355C353.454,35.037 353.454,33.688 353.36,32.152C353.261,30.516 352.782,29.694 351.725,29.454C351.199,29.313 350.574,29.261 350.001,29.261C349.522,29.261 349.235,29.167 349.235,28.782C349.235,28.49 349.615,28.397 350.386,28.397C352.209,28.397 355.235,28.537 356.626,28.537C357.829,28.537 360.662,28.397 362.49,28.397C363.11,28.397 363.496,28.49 363.496,28.782C363.496,29.167 363.204,29.261 362.725,29.261C362.246,29.261 361.86,29.308 361.282,29.407C359.985,29.641 359.605,30.464 359.511,32.147C359.412,33.683 359.412,35.037 359.412,42.355L359.412,50.824C359.412,55.49 359.412,59.298 359.605,61.365C359.746,62.667 360.084,63.532 361.527,63.73C362.199,63.824 363.256,63.917 363.975,63.917C364.501,63.917 364.746,64.058 364.746,64.308C364.746,64.641 364.36,64.787 363.834,64.787C360.662,64.787 357.636,64.641 356.339,64.641C355.235,64.641 352.214,64.787 350.293,64.787C349.668,64.787 349.329,64.641 349.329,64.308C349.329,64.063 349.522,63.917 350.1,63.917C350.819,63.917 351.397,63.824 351.824,63.73C352.787,63.532 353.074,62.714 353.214,61.319C353.459,59.298 353.459,55.496 353.459,50.829L353.454,42.355Z" style="fill:rgb(106,111,114);fill-rule:nonzero;"/>
    <path d="M382.668,52.22C382.423,52.22 382.329,52.319 382.235,52.605L379.642,59.49C379.162,60.688 378.918,61.85 378.918,62.423C378.918,63.292 379.35,63.917 380.839,63.917L381.563,63.917C382.136,63.917 382.277,64.011 382.277,64.303C382.277,64.683 381.99,64.782 381.464,64.782C379.928,64.782 377.865,64.641 376.376,64.641C375.85,64.641 373.209,64.782 370.709,64.782C370.084,64.782 369.798,64.683 369.798,64.303C369.798,64.011 369.985,63.917 370.371,63.917C370.808,63.917 371.475,63.871 371.86,63.824C374.069,63.532 374.985,61.897 375.944,59.49L387.996,29.256C388.574,27.865 388.86,27.334 389.339,27.334C389.772,27.334 390.058,27.766 390.537,28.876C391.694,31.522 399.376,51.162 402.449,58.48C404.272,62.813 405.673,63.485 406.673,63.725C407.392,63.871 408.115,63.917 408.683,63.917C409.074,63.917 409.313,63.964 409.313,64.303C409.313,64.688 408.881,64.787 407.1,64.787C405.381,64.787 401.865,64.787 398.027,64.688C397.162,64.641 396.589,64.641 396.589,64.303C396.589,64.016 396.782,63.917 397.261,63.871C397.595,63.777 397.933,63.345 397.694,62.761L393.845,52.563C393.751,52.319 393.605,52.225 393.365,52.225L382.662,52.225L382.662,52.22L382.668,52.22ZM392.464,49.813C392.704,49.813 392.751,49.673 392.704,49.522L388.381,37.636C388.334,37.444 388.282,37.204 388.142,37.204C387.996,37.204 387.902,37.444 387.855,37.636L383.438,49.48C383.392,49.673 383.438,49.813 383.631,49.813L392.464,49.813Z" style="fill:rgb(106,111,114);fill-rule:nonzero;"/>
    <path d="M434.126,38.006C434.126,29.256 434.126,27.647 434.006,25.808C433.886,23.85 433.433,22.928 431.543,22.527C431.084,22.412 430.105,22.355 429.303,22.355C428.673,22.355 428.324,22.24 428.324,21.839C428.324,21.433 428.73,21.319 429.584,21.319C432.626,21.319 436.246,21.49 437.97,21.49C439.345,21.49 442.959,21.319 445.027,21.319C445.892,21.319 446.293,21.438 446.293,21.839C446.293,22.24 445.944,22.355 445.371,22.355C444.74,22.355 444.397,22.412 443.709,22.527C442.157,22.819 441.699,23.792 441.579,25.808C441.47,27.647 441.47,29.256 441.47,38.006L441.47,46.058C441.47,54.397 443.131,57.907 445.944,60.209C448.532,62.339 451.173,62.569 453.126,62.569C455.647,62.569 458.746,61.766 461.043,59.464C464.199,56.298 464.371,51.121 464.371,45.194L464.371,38.006C464.371,29.256 464.371,27.647 464.256,25.808C464.136,23.85 463.683,22.928 461.787,22.527C461.329,22.412 460.35,22.355 459.72,22.355C459.089,22.355 458.746,22.24 458.746,21.839C458.746,21.433 459.147,21.319 459.944,21.319C462.876,21.319 466.49,21.49 466.548,21.49C467.24,21.49 470.855,21.319 473.089,21.319C473.892,21.319 474.298,21.438 474.298,21.839C474.298,22.24 473.954,22.355 473.261,22.355C472.631,22.355 472.287,22.412 471.6,22.527C470.048,22.819 469.589,23.792 469.475,25.808C469.36,27.647 469.36,29.256 469.36,38.006L469.36,44.162C469.36,50.548 468.73,57.334 463.907,61.475C459.839,64.985 455.699,65.621 451.97,65.621C448.928,65.621 443.423,65.444 439.23,61.647C436.303,59.001 434.121,54.746 434.121,46.402L434.126,38.006Z" style="fill:rgb(106,111,114);fill-rule:nonzero;"/>
    <path d="M486.006,58.24C486.1,61.996 486.725,63.246 487.683,63.579C488.501,63.871 489.412,63.917 490.183,63.917C490.709,63.917 490.996,64.016 490.996,64.308C490.996,64.688 490.569,64.787 489.892,64.787C486.777,64.787 484.85,64.641 483.938,64.641C483.506,64.641 481.246,64.787 478.756,64.787C478.131,64.787 477.694,64.74 477.694,64.308C477.694,64.016 477.98,63.917 478.464,63.917C479.084,63.917 479.954,63.871 480.631,63.678C481.876,63.292 482.069,61.897 482.11,57.709L482.548,29.214C482.548,28.251 482.688,27.579 483.168,27.579C483.699,27.579 484.131,28.204 484.944,29.069C485.522,29.694 492.819,37.542 499.834,44.522C503.1,47.798 509.579,54.725 510.397,55.496L510.636,55.496L510.157,33.881C510.11,30.949 509.673,30.032 508.527,29.548C507.808,29.261 506.652,29.261 505.975,29.261C505.397,29.261 505.204,29.121 505.204,28.829C505.204,28.444 505.735,28.397 506.459,28.397C508.954,28.397 511.261,28.542 512.267,28.542C512.793,28.542 514.621,28.397 516.975,28.397C517.595,28.397 518.079,28.444 518.079,28.829C518.079,29.121 517.787,29.261 517.209,29.261C516.73,29.261 516.345,29.261 515.772,29.407C514.423,29.792 514.048,30.803 513.996,33.496L513.47,63.871C513.47,64.933 513.272,65.36 512.845,65.36C512.313,65.36 511.735,64.834 511.214,64.303C508.194,61.412 502.043,55.11 497.048,50.152C491.813,44.949 486.485,38.933 485.615,38.016L485.475,38.016L486.006,58.24Z" style="fill:rgb(106,111,114);fill-rule:nonzero;"/>
    <path d="M530.36,42.355C530.36,35.037 530.36,33.688 530.261,32.152C530.168,30.516 529.683,29.694 528.631,29.454C528.105,29.313 527.475,29.261 526.902,29.261C526.423,29.261 526.131,29.167 526.131,28.782C526.131,28.49 526.522,28.397 527.287,28.397C529.11,28.397 532.142,28.537 533.537,28.537C534.73,28.537 537.569,28.397 539.392,28.397C540.017,28.397 540.402,28.49 540.402,28.782C540.402,29.167 540.11,29.261 539.631,29.261C539.152,29.261 538.767,29.308 538.194,29.407C536.892,29.641 536.511,30.464 536.418,32.147C536.319,33.683 536.319,35.037 536.319,42.355L536.319,50.824C536.319,55.49 536.319,59.298 536.511,61.365C536.652,62.667 536.99,63.532 538.433,63.73C539.105,63.824 540.157,63.917 540.881,63.917C541.407,63.917 541.647,64.058 541.647,64.308C541.647,64.641 541.267,64.787 540.74,64.787C537.569,64.787 534.548,64.641 533.251,64.641C532.142,64.641 529.115,64.787 527.194,64.787C526.574,64.787 526.235,64.641 526.235,64.308C526.235,64.063 526.428,63.917 527.006,63.917C527.72,63.917 528.303,63.824 528.73,63.73C529.694,63.532 529.985,62.714 530.126,61.319C530.365,59.298 530.365,55.496 530.365,50.829L530.365,42.355L530.36,42.355Z" style="fill:rgb(106,111,114);fill-rule:nonzero;"/>
    <path d="M551.464,33.11C550.365,30.464 549.553,29.933 547.819,29.454C547.1,29.261 546.329,29.261 545.944,29.261C545.511,29.261 545.365,29.115 545.365,28.829C545.365,28.444 545.892,28.397 546.621,28.397C549.168,28.397 551.897,28.537 553.579,28.537C554.782,28.537 557.084,28.397 559.48,28.397C560.058,28.397 560.589,28.49 560.589,28.829C560.589,29.162 560.303,29.261 559.871,29.261C559.1,29.261 558.376,29.308 557.996,29.595C557.662,29.834 557.517,30.173 557.517,30.605C557.517,31.235 557.949,32.579 558.621,34.313L566.881,56.167L567.074,56.167C569.136,50.871 575.376,35.371 576.532,32.194C576.772,31.569 576.959,30.845 576.959,30.412C576.959,30.032 576.772,29.641 576.339,29.501C575.761,29.308 575.043,29.261 574.418,29.261C573.985,29.261 573.605,29.214 573.605,28.876C573.605,28.49 574.037,28.391 574.949,28.391C577.345,28.391 579.36,28.537 579.985,28.537C580.808,28.537 583.063,28.391 584.501,28.391C585.126,28.391 585.506,28.49 585.506,28.824C585.506,29.162 585.22,29.256 584.74,29.256C584.261,29.256 583.251,29.256 582.386,29.834C581.761,30.266 581.037,31.089 579.74,34.167C577.871,38.694 576.574,41.287 573.975,47.209C570.907,54.24 568.647,59.485 567.595,61.897C566.345,64.683 566.058,65.459 565.386,65.459C564.761,65.459 564.475,64.782 563.563,62.522L551.464,33.11Z" style="fill:rgb(106,111,114);fill-rule:nonzero;"/>
    <path d="M593.126,42.355C593.126,35.037 593.126,33.688 593.032,32.152C592.933,30.516 592.548,29.74 590.964,29.407C590.584,29.313 589.761,29.266 589.084,29.266C588.563,29.266 588.272,29.173 588.272,28.834C588.272,28.501 588.61,28.402 589.329,28.402C591.881,28.402 594.902,28.542 596.246,28.542C597.782,28.542 607.339,28.542 608.251,28.496C609.162,28.402 609.933,28.303 610.319,28.209C610.558,28.162 610.845,28.016 611.084,28.016C611.324,28.016 611.376,28.209 611.376,28.444C611.376,28.782 611.136,29.36 610.996,31.574C610.944,32.053 610.85,34.173 610.756,34.751C610.709,34.99 610.615,35.282 610.277,35.282C609.938,35.282 609.845,35.042 609.845,34.61C609.845,34.272 609.798,33.449 609.553,32.876C609.22,32.011 608.735,31.428 606.339,31.141C605.522,31.048 600.48,30.949 599.517,30.949C599.277,30.949 599.183,31.095 599.183,31.428L599.183,43.61C599.183,43.949 599.23,44.136 599.517,44.136C600.574,44.136 606.1,44.136 607.199,44.042C608.355,43.949 609.074,43.798 609.506,43.324C609.839,42.938 610.032,42.694 610.277,42.694C610.464,42.694 610.61,42.792 610.61,43.079C610.61,43.371 610.371,44.141 610.225,46.589C610.131,47.558 610.032,49.48 610.032,49.819C610.032,50.204 610.032,50.73 609.605,50.73C609.267,50.73 609.173,50.542 609.173,50.298C609.126,49.819 609.126,49.194 608.975,48.569C608.74,47.605 608.069,46.886 606.287,46.688C605.381,46.589 600.621,46.548 599.47,46.548C599.235,46.548 599.183,46.74 599.183,47.027L599.183,50.834C599.183,52.47 599.136,56.891 599.183,58.292C599.277,61.61 600.048,62.339 604.944,62.339C606.199,62.339 608.214,62.339 609.459,61.756C610.709,61.183 611.282,60.173 611.626,58.194C611.714,57.667 611.813,57.475 612.147,57.475C612.532,57.475 612.532,57.86 612.532,58.339C612.532,59.449 612.147,62.72 611.912,63.688C611.579,64.938 611.142,64.938 609.319,64.938C602.063,64.938 598.855,64.652 596.011,64.652C594.907,64.652 591.881,64.792 589.959,64.792C589.339,64.792 589.001,64.652 589.001,64.313C589.001,64.069 589.194,63.928 589.772,63.928C590.49,63.928 591.069,63.829 591.496,63.735C592.459,63.542 592.694,62.48 592.892,61.084C593.126,59.069 593.126,55.261 593.126,50.834L593.126,42.355Z" style="fill:rgb(106,111,114);fill-rule:nonzero;"/>
    <path d="M626.1,42.355C626.1,35.037 626.1,33.688 626.006,32.152C625.912,30.516 625.527,29.746 623.944,29.407C623.558,29.308 622.74,29.266 622.069,29.266C621.537,29.266 621.251,29.173 621.251,28.834C621.251,28.496 621.589,28.402 622.308,28.402C624.855,28.402 627.881,28.548 628.892,28.548C630.517,28.548 634.168,28.402 635.657,28.402C638.683,28.402 641.902,28.688 644.501,30.47C645.845,31.386 647.761,33.845 647.761,37.069C647.761,40.631 646.272,43.902 641.423,47.85C645.699,53.24 649.006,57.522 651.845,60.511C654.537,63.303 656.506,63.636 657.225,63.782C657.751,63.881 658.183,63.928 658.569,63.928C658.949,63.928 659.147,64.069 659.147,64.313C659.147,64.699 658.813,64.792 658.235,64.792L653.673,64.792C650.985,64.792 649.782,64.553 648.532,63.881C646.464,62.772 644.647,60.511 641.954,56.803C640.037,54.152 637.829,50.881 637.199,50.157C636.959,49.871 636.673,49.824 636.339,49.824L632.157,49.725C631.918,49.725 631.767,49.824 631.767,50.115L631.767,50.787C631.767,55.261 631.767,59.069 632.006,61.089C632.152,62.48 632.438,63.542 633.881,63.735C634.6,63.829 635.657,63.928 636.24,63.928C636.621,63.928 636.813,64.074 636.813,64.313C636.813,64.652 636.48,64.798 635.855,64.798C633.069,64.798 629.511,64.652 628.793,64.652C627.881,64.652 624.85,64.798 622.933,64.798C622.308,64.798 621.97,64.652 621.97,64.313C621.97,64.074 622.162,63.928 622.74,63.928C623.459,63.928 624.037,63.829 624.47,63.735C625.428,63.542 625.668,62.48 625.86,61.089C626.1,59.069 626.1,55.261 626.1,50.834L626.1,42.355ZM631.767,46.157C631.767,46.688 631.871,46.881 632.204,47.027C633.209,47.36 634.652,47.506 635.855,47.506C637.772,47.506 638.397,47.313 639.261,46.688C640.699,45.626 642.089,43.417 642.089,39.464C642.089,32.631 637.579,30.657 634.746,30.657C633.543,30.657 632.673,30.704 632.194,30.855C631.86,30.949 631.767,31.141 631.767,31.527L631.767,46.157Z" style="fill:rgb(106,111,114);fill-rule:nonzero;"/>
    <path d="M662.642,64.209C661.871,63.871 661.725,63.631 661.725,62.574C661.725,59.923 661.918,57.037 661.964,56.266C662.011,55.542 662.157,55.016 662.543,55.016C662.975,55.016 663.027,55.444 663.027,55.834C663.027,56.459 663.22,57.47 663.459,58.287C664.517,61.85 667.345,63.152 670.319,63.152C674.642,63.152 676.761,60.214 676.761,57.662C676.761,55.303 676.037,53.042 672.053,49.959L669.845,48.23C664.563,44.089 662.74,40.72 662.74,36.824C662.74,31.527 667.157,27.725 673.829,27.725C676.949,27.725 678.97,28.209 680.22,28.542C680.647,28.641 680.892,28.782 680.892,29.121C680.892,29.746 680.694,31.141 680.694,34.897C680.694,35.959 680.553,36.345 680.173,36.345C679.834,36.345 679.694,36.053 679.694,35.475C679.694,35.042 679.454,33.548 678.438,32.298C677.72,31.381 676.329,29.938 673.204,29.938C669.647,29.938 667.49,32.006 667.49,34.891C667.49,37.11 668.6,38.792 672.584,41.824L673.928,42.839C679.694,47.313 681.798,50.537 681.798,55.11C681.798,57.907 680.74,61.225 677.282,63.485C674.886,65.022 672.199,65.464 669.652,65.464C666.865,65.459 664.699,65.121 662.642,64.209" style="fill:rgb(106,111,114);fill-rule:nonzero;"/>
    <path d="M695.371,42.355C695.371,35.037 695.371,33.688 695.272,32.152C695.178,30.516 694.699,29.694 693.642,29.454C693.115,29.313 692.49,29.261 691.918,29.261C691.438,29.261 691.147,29.167 691.147,28.782C691.147,28.49 691.532,28.397 692.303,28.397C694.126,28.397 697.152,28.537 698.543,28.537C699.746,28.537 702.579,28.397 704.407,28.397C705.027,28.397 705.412,28.49 705.412,28.782C705.412,29.167 705.126,29.261 704.642,29.261C704.162,29.261 703.777,29.308 703.204,29.407C701.907,29.641 701.522,30.464 701.423,32.147C701.329,33.683 701.329,35.037 701.329,42.355L701.329,50.824C701.329,55.49 701.329,59.298 701.522,61.365C701.662,62.667 702.001,63.532 703.438,63.73C704.11,63.824 705.168,63.917 705.892,63.917C706.412,63.917 706.662,64.058 706.662,64.308C706.662,64.641 706.277,64.787 705.746,64.787C702.574,64.787 699.553,64.641 698.256,64.641C697.152,64.641 694.126,64.787 692.209,64.787C691.579,64.787 691.246,64.641 691.246,64.308C691.246,64.063 691.438,63.917 692.017,63.917C692.735,63.917 693.308,63.824 693.74,63.73C694.704,63.532 694.99,62.714 695.131,61.319C695.371,59.298 695.371,55.496 695.371,50.829L695.371,42.355Z" style="fill:rgb(106,111,114);fill-rule:nonzero;"/>
    <path d="M728.168,31.089L721.017,31.282C718.23,31.376 717.074,31.621 716.355,32.678C715.876,33.402 715.636,33.98 715.543,34.36C715.444,34.751 715.298,34.944 715.011,34.944C714.678,34.944 714.584,34.704 714.584,34.173C714.584,33.402 715.49,29.016 715.589,28.636C715.735,28.011 715.876,27.725 716.168,27.725C716.548,27.725 717.032,28.204 718.235,28.303C719.626,28.444 721.449,28.542 723.032,28.542L742.048,28.542C745.121,28.542 746.272,28.058 746.657,28.058C746.996,28.058 747.043,28.35 747.043,29.069C747.043,30.079 746.902,33.402 746.902,34.657C746.85,35.136 746.756,35.423 746.47,35.423C746.084,35.423 745.99,35.183 745.938,34.459L745.892,33.933C745.793,32.678 744.501,31.334 740.225,31.235L734.178,31.095L734.178,50.829C734.178,55.256 734.178,59.063 734.407,61.131C734.553,62.48 734.839,63.532 736.282,63.73C736.959,63.824 738.011,63.923 738.735,63.923C739.261,63.923 739.506,64.063 739.506,64.308C739.506,64.641 739.121,64.792 738.595,64.792C735.423,64.792 732.397,64.647 731.053,64.647C729.949,64.647 726.923,64.792 725.001,64.792C724.381,64.792 724.037,64.647 724.037,64.308C724.037,64.069 724.235,63.923 724.813,63.923C725.527,63.923 726.105,63.824 726.532,63.73C727.501,63.532 727.787,62.48 727.928,61.084C728.168,59.063 728.168,55.256 728.168,50.824L728.168,31.089Z" style="fill:rgb(106,111,114);fill-rule:nonzero;"/>
    <path d="M767.98,52.319C767.98,49.714 767.501,48.662 766.876,47.261C766.537,46.49 760.105,35.902 758.428,33.402C757.225,31.615 756.022,30.412 755.11,29.886C754.49,29.548 753.673,29.261 753.095,29.261C752.709,29.261 752.376,29.162 752.376,28.829C752.376,28.537 752.709,28.397 753.287,28.397C754.152,28.397 757.751,28.537 759.339,28.537C760.35,28.537 762.313,28.397 764.48,28.397C764.959,28.397 765.204,28.537 765.204,28.829C765.204,29.115 764.865,29.162 764.142,29.355C763.709,29.454 763.464,29.834 763.464,30.225C763.464,30.61 763.704,31.188 764.043,31.86C764.72,33.303 771.438,44.902 772.209,46.251C772.688,45.095 778.735,34.506 779.407,33.016C779.892,31.954 780.084,31.136 780.084,30.511C780.084,30.027 779.892,29.501 779.074,29.308C778.647,29.209 778.209,29.115 778.209,28.829C778.209,28.49 778.449,28.397 779.027,28.397C780.61,28.397 782.147,28.537 783.532,28.537C784.6,28.537 787.761,28.397 788.678,28.397C789.204,28.397 789.543,28.49 789.543,28.777C789.543,29.115 789.157,29.261 788.631,29.261C788.147,29.261 787.24,29.454 786.517,29.834C785.511,30.319 784.985,30.897 783.928,32.199C782.339,34.121 775.621,45.433 774.756,47.506C774.037,49.235 774.037,50.725 774.037,52.319L774.037,56.266C774.037,57.037 774.037,59.058 774.178,61.079C774.272,62.475 774.704,63.532 776.152,63.725C776.824,63.824 777.876,63.917 778.548,63.917C779.074,63.917 779.319,64.058 779.319,64.303C779.319,64.641 778.933,64.787 778.313,64.787C775.287,64.787 772.261,64.641 770.964,64.641C769.761,64.641 766.735,64.787 764.959,64.787C764.287,64.787 763.902,64.688 763.902,64.303C763.902,64.063 764.142,63.917 764.673,63.917C765.345,63.917 765.923,63.824 766.355,63.725C767.319,63.532 767.746,62.475 767.839,61.079C767.985,59.058 767.985,57.032 767.985,56.266L767.98,52.319Z" style="fill:rgb(106,111,114);fill-rule:nonzero;"/>
    <path d="M102.803,102.053C102.803,97.246 102.803,96.36 102.735,95.35C102.673,94.272 102.36,93.735 101.668,93.579C101.319,93.485 100.907,93.449 100.532,93.449C100.22,93.449 100.027,93.391 100.027,93.136C100.027,92.949 100.282,92.881 100.782,92.881C101.985,92.881 103.97,92.98 104.886,92.98C105.673,92.98 107.532,92.881 108.73,92.881C109.142,92.881 109.392,92.949 109.392,93.136C109.392,93.386 109.204,93.449 108.892,93.449C108.574,93.449 108.324,93.485 107.944,93.548C107.089,93.699 106.839,94.246 106.777,95.35C106.714,96.36 106.714,97.246 106.714,102.053L106.714,107.615C106.714,110.683 106.714,113.178 106.839,114.542C106.933,115.397 107.152,115.964 108.1,116.089C108.543,116.152 109.235,116.214 109.709,116.214C110.053,116.214 110.214,116.308 110.214,116.47C110.214,116.688 109.959,116.787 109.615,116.787C107.532,116.787 105.548,116.688 104.694,116.688C103.97,116.688 101.985,116.787 100.72,116.787C100.308,116.787 100.089,116.688 100.089,116.47C100.089,116.308 100.22,116.214 100.595,116.214C101.069,116.214 101.449,116.152 101.73,116.089C102.36,115.959 102.548,115.423 102.647,114.511C102.803,113.178 102.803,110.683 102.803,107.615L102.803,102.053Z" style="fill:rgb(106,111,114);fill-rule:nonzero;"/>
    <path d="M120.428,112.48C120.49,114.944 120.907,115.766 121.532,115.99C122.069,116.178 122.673,116.214 123.173,116.214C123.517,116.214 123.709,116.272 123.709,116.464C123.709,116.714 123.423,116.782 122.985,116.782C120.933,116.782 119.673,116.683 119.074,116.683C118.787,116.683 117.308,116.782 115.668,116.782C115.256,116.782 114.975,116.746 114.975,116.464C114.975,116.272 115.162,116.214 115.48,116.214C115.886,116.214 116.459,116.178 116.897,116.053C117.72,115.803 117.845,114.886 117.876,112.131L118.157,93.423C118.157,92.787 118.256,92.345 118.569,92.345C118.918,92.345 119.199,92.756 119.735,93.324C120.115,93.735 124.907,98.886 129.511,103.475C131.657,105.621 135.912,110.173 136.449,110.683L136.605,110.683L136.293,96.49C136.261,94.563 135.975,93.959 135.22,93.647C134.746,93.454 133.99,93.454 133.548,93.454C133.173,93.454 133.043,93.365 133.043,93.173C133.043,92.917 133.392,92.886 133.865,92.886C135.506,92.886 137.017,92.985 137.678,92.985C138.027,92.985 139.225,92.886 140.772,92.886C141.178,92.886 141.496,92.917 141.496,93.173C141.496,93.365 141.308,93.454 140.928,93.454C140.61,93.454 140.36,93.454 139.98,93.553C139.1,93.808 138.845,94.47 138.813,96.24L138.47,116.183C138.47,116.886 138.345,117.167 138.058,117.167C137.709,117.167 137.334,116.819 136.985,116.464C135.001,114.569 130.964,110.428 127.683,107.173C124.246,103.761 120.746,99.808 120.178,99.209L120.084,99.209L120.428,112.48Z" style="fill:rgb(106,111,114);fill-rule:nonzero;"/>
    <path d="M165.397,94.652L160.699,94.782C158.871,94.845 158.115,95.006 157.642,95.699C157.329,96.173 157.168,96.553 157.105,96.803C157.043,97.053 156.949,97.183 156.761,97.183C156.537,97.183 156.47,97.027 156.47,96.678C156.47,96.167 157.074,93.292 157.136,93.037C157.23,92.626 157.329,92.438 157.517,92.438C157.767,92.438 158.084,92.756 158.871,92.819C159.787,92.912 160.985,92.975 162.027,92.975L174.517,92.975C175.522,92.975 176.214,92.876 176.688,92.819C177.162,92.72 177.412,92.662 177.543,92.662C177.761,92.662 177.793,92.85 177.793,93.324C177.793,93.99 177.699,96.167 177.699,96.996C177.668,97.313 177.605,97.506 177.412,97.506C177.162,97.506 177.1,97.345 177.069,96.865L177.037,96.522C176.975,95.704 176.121,94.813 173.313,94.751L169.339,94.657L169.339,107.621C169.339,110.527 169.339,113.027 169.496,114.381C169.595,115.266 169.782,115.964 170.73,116.095C171.168,116.157 171.865,116.22 172.334,116.22C172.683,116.22 172.845,116.313 172.845,116.475C172.845,116.694 172.589,116.792 172.246,116.792C170.162,116.792 168.173,116.694 167.293,116.694C166.563,116.694 164.579,116.792 163.319,116.792C162.907,116.792 162.688,116.694 162.688,116.475C162.688,116.313 162.813,116.22 163.194,116.22C163.662,116.22 164.043,116.162 164.329,116.095C164.959,115.964 165.147,115.272 165.24,114.355C165.397,113.027 165.397,110.527 165.397,107.621L165.397,94.652Z" style="fill:rgb(106,111,114);fill-rule:nonzero;"/>
    <path d="M201.376,102.933C201.475,102.933 201.569,102.876 201.569,102.709L201.569,102.048C201.569,97.24 201.569,96.355 201.506,95.35C201.444,94.272 201.188,93.772 200.147,93.542C199.897,93.48 199.36,93.449 198.918,93.449C198.574,93.449 198.381,93.386 198.381,93.162C198.381,92.938 198.605,92.876 199.043,92.876C200.746,92.876 202.735,92.975 203.589,92.975C204.345,92.975 206.329,92.876 207.558,92.876C208.001,92.876 208.22,92.938 208.22,93.162C208.22,93.386 208.032,93.449 207.657,93.449C207.402,93.449 207.121,93.48 206.74,93.542C205.892,93.699 205.636,94.24 205.574,95.35C205.506,96.355 205.506,97.24 205.506,102.048L205.506,107.61C205.506,110.516 205.506,113.016 205.668,114.371C205.761,115.261 205.954,115.954 206.897,116.084C207.339,116.147 208.032,116.214 208.506,116.214C208.855,116.214 209.011,116.303 209.011,116.464C209.011,116.683 208.756,116.782 208.381,116.782C206.329,116.782 204.345,116.683 203.459,116.683C202.735,116.683 200.746,116.782 199.517,116.782C199.074,116.782 198.855,116.683 198.855,116.464C198.855,116.303 198.98,116.214 199.36,116.214C199.834,116.214 200.209,116.152 200.496,116.084C201.126,115.954 201.282,115.261 201.407,114.345C201.569,113.016 201.569,110.516 201.569,107.61L201.569,104.829C201.569,104.699 201.475,104.641 201.376,104.641L189.334,104.641C189.24,104.641 189.142,104.673 189.142,104.829L189.142,107.61C189.142,110.516 189.142,113.016 189.303,114.371C189.397,115.261 189.584,115.954 190.532,116.084C190.975,116.147 191.668,116.214 192.136,116.214C192.485,116.214 192.642,116.303 192.642,116.464C192.642,116.683 192.392,116.782 192.011,116.782C189.964,116.782 187.975,116.683 187.095,116.683C186.371,116.683 184.381,116.782 183.121,116.782C182.709,116.782 182.49,116.683 182.49,116.464C182.49,116.303 182.615,116.214 182.996,116.214C183.47,116.214 183.845,116.152 184.131,116.084C184.761,115.954 184.918,115.261 185.043,114.345C185.204,113.016 185.204,110.516 185.204,107.61L185.204,102.048C185.204,97.24 185.204,96.355 185.136,95.35C185.074,94.272 184.824,93.772 183.782,93.542C183.532,93.48 182.996,93.449 182.553,93.449C182.204,93.449 182.017,93.386 182.017,93.162C182.017,92.938 182.24,92.876 182.678,92.876C184.381,92.876 186.371,92.975 187.22,92.975C187.975,92.975 189.964,92.876 191.194,92.876C191.636,92.876 191.855,92.938 191.855,93.162C191.855,93.386 191.668,93.449 191.287,93.449C191.037,93.449 190.751,93.48 190.371,93.542C189.522,93.699 189.267,94.24 189.209,95.35C189.142,96.355 189.142,97.24 189.142,102.048L189.142,102.709C189.142,102.871 189.24,102.933 189.334,102.933L201.376,102.933Z" style="fill:rgb(106,111,114);fill-rule:nonzero;"/>
    <path d="M217.454,102.053C217.454,97.246 217.454,96.36 217.392,95.35C217.329,94.277 217.074,93.772 216.032,93.548C215.782,93.485 215.246,93.449 214.803,93.449C214.459,93.449 214.272,93.391 214.272,93.167C214.272,92.949 214.49,92.881 214.964,92.881C216.631,92.881 218.621,92.98 219.506,92.98C220.511,92.98 226.793,92.98 227.386,92.949C227.985,92.881 228.49,92.819 228.74,92.756C228.902,92.725 229.089,92.631 229.251,92.631C229.402,92.631 229.438,92.756 229.438,92.912C229.438,93.136 229.282,93.511 229.183,94.964C229.152,95.282 229.089,96.678 229.027,97.053C228.996,97.214 228.933,97.407 228.714,97.407C228.49,97.407 228.428,97.24 228.428,96.959C228.428,96.74 228.397,96.204 228.24,95.824C228.022,95.251 227.704,94.871 226.126,94.683C225.589,94.621 222.277,94.553 221.647,94.553C221.49,94.553 221.428,94.652 221.428,94.871L221.428,102.871C221.428,103.095 221.459,103.214 221.647,103.214C222.345,103.214 225.97,103.214 226.694,103.157C227.454,103.095 227.923,103.001 228.204,102.678C228.428,102.433 228.553,102.266 228.714,102.266C228.839,102.266 228.933,102.329 228.933,102.522C228.933,102.709 228.777,103.214 228.683,104.829C228.615,105.459 228.553,106.725 228.553,106.938C228.553,107.194 228.553,107.542 228.272,107.542C228.053,107.542 227.985,107.417 227.985,107.261C227.954,106.938 227.954,106.532 227.86,106.121C227.704,105.49 227.261,105.016 226.095,104.886C225.49,104.829 222.371,104.792 221.615,104.792C221.459,104.792 221.428,104.923 221.428,105.11L221.428,107.61C221.428,108.678 221.397,111.589 221.428,112.506C221.49,114.688 221.996,115.157 225.209,115.157C226.032,115.157 227.355,115.157 228.173,114.777C228.996,114.402 229.371,113.735 229.595,112.438C229.657,112.095 229.72,111.964 229.944,111.964C230.194,111.964 230.194,112.214 230.194,112.532C230.194,113.261 229.944,115.412 229.787,116.042C229.563,116.86 229.282,116.86 228.084,116.86C223.319,116.86 221.204,116.673 219.345,116.673C218.621,116.673 216.631,116.766 215.371,116.766C214.964,116.766 214.74,116.673 214.74,116.454C214.74,116.292 214.865,116.199 215.246,116.199C215.72,116.199 216.1,116.136 216.381,116.069C217.011,115.944 217.168,115.251 217.298,114.329C217.454,113.006 217.454,110.506 217.454,107.6L217.454,102.053Z" style="fill:rgb(106,111,114);fill-rule:nonzero;"/>
    <path d="M250.543,113.777C247.449,111.058 246.631,107.516 246.631,104.454C246.631,102.303 247.293,98.574 250.319,95.787C252.589,93.699 255.589,92.438 260.287,92.438C262.24,92.438 263.407,92.563 264.86,92.756C266.058,92.912 267.069,93.199 268.011,93.292C268.36,93.324 268.485,93.48 268.485,93.678C268.485,93.928 268.392,94.308 268.329,95.412C268.267,96.454 268.298,98.194 268.23,98.824C268.199,99.303 268.136,99.553 267.855,99.553C267.6,99.553 267.537,99.303 267.537,98.85C267.506,97.871 267.1,96.761 266.308,95.944C265.267,94.839 262.808,93.98 259.907,93.98C257.162,93.98 255.365,94.683 253.975,95.944C251.678,98.058 251.079,101.063 251.079,104.131C251.079,111.657 256.787,115.386 261.011,115.386C263.819,115.386 265.522,115.063 266.782,113.615C267.319,113.011 267.73,112.095 267.855,111.522C267.949,111.016 268.011,110.891 268.267,110.891C268.485,110.891 268.548,111.115 268.548,111.365C268.548,111.746 268.168,114.496 267.855,115.574C267.699,116.11 267.569,116.272 267.037,116.49C265.772,116.996 263.376,117.214 261.36,117.214C257.037,117.225 253.407,116.277 250.543,113.777" style="fill:rgb(106,111,114);fill-rule:nonzero;"/>
    <path d="M276.902,102.053C276.902,97.246 276.902,96.36 276.839,95.35C276.782,94.277 276.459,93.735 275.767,93.579C275.423,93.485 275.011,93.449 274.631,93.449C274.319,93.449 274.126,93.391 274.126,93.136C274.126,92.949 274.381,92.881 274.886,92.881C276.084,92.881 278.069,92.98 278.985,92.98C279.772,92.98 281.631,92.881 282.829,92.881C283.246,92.881 283.496,92.949 283.496,93.136C283.496,93.386 283.308,93.449 282.99,93.449C282.678,93.449 282.423,93.485 282.043,93.548C281.194,93.699 280.944,94.246 280.876,95.35C280.813,96.36 280.813,97.246 280.813,102.053L280.813,107.615C280.813,110.683 280.813,113.178 280.944,114.542C281.032,115.397 281.256,115.964 282.204,116.089C282.642,116.152 283.339,116.214 283.808,116.214C284.157,116.214 284.313,116.308 284.313,116.47C284.313,116.688 284.063,116.787 283.714,116.787C281.631,116.787 279.647,116.688 278.793,116.688C278.069,116.688 276.084,116.787 274.824,116.787C274.412,116.787 274.188,116.688 274.188,116.47C274.188,116.308 274.319,116.214 274.694,116.214C275.168,116.214 275.548,116.152 275.829,116.089C276.459,115.959 276.652,115.423 276.746,114.511C276.902,113.178 276.902,110.683 276.902,107.615L276.902,102.053Z" style="fill:rgb(106,111,114);fill-rule:nonzero;"/>
    <path d="M296.964,94.652L292.267,94.782C290.438,94.845 289.683,95.006 289.209,95.699C288.892,96.173 288.735,96.553 288.673,96.803C288.61,97.053 288.517,97.183 288.329,97.183C288.105,97.183 288.043,97.027 288.043,96.678C288.043,96.167 288.642,93.292 288.704,93.037C288.803,92.626 288.897,92.438 289.084,92.438C289.339,92.438 289.652,92.756 290.438,92.819C291.355,92.912 292.553,92.975 293.595,92.975L306.079,92.975C307.089,92.975 307.787,92.876 308.256,92.819C308.73,92.72 308.985,92.662 309.11,92.662C309.329,92.662 309.36,92.85 309.36,93.324C309.36,93.99 309.267,96.167 309.267,96.996C309.23,97.313 309.168,97.506 308.985,97.506C308.73,97.506 308.662,97.345 308.636,96.865L308.6,96.522C308.543,95.704 307.688,94.813 304.881,94.751L300.907,94.657L300.907,107.621C300.907,110.527 300.907,113.027 301.063,114.381C301.162,115.266 301.35,115.964 302.298,116.095C302.735,116.157 303.433,116.22 303.907,116.22C304.256,116.22 304.407,116.313 304.407,116.475C304.407,116.694 304.157,116.792 303.808,116.792C301.73,116.792 299.74,116.694 298.86,116.694C298.136,116.694 296.147,116.792 294.886,116.792C294.475,116.792 294.256,116.694 294.256,116.475C294.256,116.313 294.381,116.22 294.761,116.22C295.235,116.22 295.61,116.162 295.897,116.095C296.527,115.964 296.714,115.272 296.808,114.355C296.97,113.027 296.97,110.527 296.97,107.621L296.964,94.652Z" style="fill:rgb(106,111,114);fill-rule:nonzero;"/>
    <path d="M320.454,108.595C320.454,106.886 320.136,106.194 319.73,105.272C319.511,104.766 315.282,97.813 314.183,96.173C313.392,95.001 312.605,94.214 312.006,93.871C311.595,93.641 311.058,93.449 310.683,93.449C310.428,93.449 310.204,93.391 310.204,93.167C310.204,92.98 310.428,92.886 310.808,92.886C311.376,92.886 313.735,92.98 314.782,92.98C315.444,92.98 316.735,92.886 318.152,92.886C318.47,92.886 318.626,92.98 318.626,93.167C318.626,93.36 318.407,93.391 317.933,93.511C317.647,93.579 317.49,93.829 317.49,94.084C317.49,94.339 317.647,94.714 317.871,95.162C318.313,96.105 322.73,103.72 323.23,104.605C323.548,103.845 327.522,96.891 327.959,95.912C328.277,95.214 328.402,94.678 328.402,94.266C328.402,93.954 328.272,93.605 327.74,93.48C327.454,93.417 327.173,93.35 327.173,93.162C327.173,92.938 327.329,92.876 327.704,92.876C328.751,92.876 329.756,92.97 330.673,92.97C331.365,92.97 333.449,92.876 334.048,92.876C334.392,92.876 334.615,92.938 334.615,93.126C334.615,93.35 334.365,93.444 334.017,93.444C333.699,93.444 333.1,93.574 332.626,93.824C331.964,94.141 331.621,94.522 330.923,95.371C329.886,96.631 325.47,104.063 324.902,105.423C324.428,106.563 324.428,107.542 324.428,108.584L324.428,111.173C324.428,111.683 324.428,113.006 324.522,114.339C324.584,115.251 324.865,115.949 325.819,116.074C326.256,116.136 326.949,116.199 327.392,116.199C327.735,116.199 327.897,116.292 327.897,116.454C327.897,116.678 327.642,116.772 327.235,116.772C325.246,116.772 323.261,116.678 322.407,116.678C321.621,116.678 319.631,116.772 318.464,116.772C318.027,116.772 317.772,116.709 317.772,116.454C317.772,116.292 317.928,116.199 318.277,116.199C318.72,116.199 319.095,116.141 319.381,116.074C320.011,115.949 320.293,115.251 320.36,114.339C320.454,113.006 320.454,111.683 320.454,111.173L320.454,108.589L320.454,108.595Z" style="fill:rgb(106,111,114);fill-rule:nonzero;"/>
    <path d="M347.287,104.834C347.287,99.428 350.85,92.444 360.308,92.444C368.162,92.444 373.053,97.027 373.053,104.266C373.053,111.506 368.006,117.225 360.001,117.225C350.944,117.225 347.287,110.428 347.287,104.834M368.636,105.433C368.636,98.35 364.569,93.959 359.397,93.959C355.772,93.959 351.636,95.975 351.636,103.85C351.636,110.428 355.267,115.641 361.324,115.641C363.527,115.641 368.636,114.574 368.636,105.433" style="fill:rgb(106,111,114);fill-rule:nonzero;"/>
    <path d="M385.23,107.615C385.23,110.652 385.23,113.022 385.386,114.35C385.48,115.266 385.668,115.964 386.615,116.089C387.058,116.152 387.751,116.214 388.188,116.214C388.6,116.214 388.73,116.308 388.73,116.47C388.73,116.688 388.506,116.787 388.032,116.787C386.048,116.787 384.063,116.688 383.24,116.688C382.423,116.688 380.433,116.787 379.235,116.787C378.793,116.787 378.574,116.725 378.574,116.47C378.574,116.308 378.699,116.214 379.048,116.214C379.522,116.214 379.897,116.157 380.183,116.089C380.813,115.964 380.97,115.266 381.1,114.35C381.256,113.022 381.256,110.657 381.256,107.615L381.256,102.053C381.256,97.246 381.256,96.36 381.194,95.35C381.131,94.277 380.871,93.772 379.834,93.548C379.584,93.485 379.048,93.454 378.605,93.454C378.293,93.454 378.069,93.391 378.069,93.199C378.069,92.949 378.324,92.886 378.793,92.886C380.433,92.886 382.423,92.98 383.334,92.98C384.532,92.98 390.933,92.98 391.657,92.949C392.261,92.912 392.636,92.912 392.954,92.819C393.142,92.756 393.298,92.626 393.459,92.626C393.589,92.626 393.678,92.756 393.678,92.912C393.678,93.136 393.522,93.511 393.428,94.334C393.397,94.657 393.334,96.516 393.272,96.897C393.24,97.141 393.173,97.334 392.954,97.334C392.73,97.334 392.668,97.178 392.636,96.829C392.636,96.574 392.636,96.069 392.449,95.631C392.23,95.183 391.569,94.709 390.365,94.678L385.511,94.579C385.324,94.579 385.225,94.678 385.225,95.027L385.225,102.928C385.225,103.115 385.256,103.209 385.449,103.209L389.485,103.178C390.022,103.178 390.459,103.178 390.907,103.147C391.506,103.115 391.944,102.99 392.261,102.574C392.418,102.386 392.48,102.256 392.668,102.256C392.798,102.256 392.86,102.355 392.86,102.542C392.86,102.735 392.699,103.522 392.61,104.501C392.543,105.131 392.48,106.589 392.48,106.808C392.48,107.095 392.48,107.412 392.162,107.412C391.975,107.412 391.912,107.188 391.912,106.975C391.912,106.751 391.85,106.371 391.725,105.996C391.569,105.553 391.095,104.985 390.115,104.85C389.329,104.761 385.985,104.761 385.449,104.761C385.293,104.761 385.225,104.819 385.225,105.042L385.23,107.615Z" style="fill:rgb(106,111,114);fill-rule:nonzero;"/>
    <path d="M415.308,112.48C415.376,114.944 415.787,115.766 416.412,115.99C416.949,116.178 417.548,116.214 418.053,116.214C418.402,116.214 418.589,116.272 418.589,116.464C418.589,116.714 418.308,116.782 417.865,116.782C415.813,116.782 414.553,116.683 413.949,116.683C413.668,116.683 412.183,116.782 410.548,116.782C410.136,116.782 409.85,116.746 409.85,116.464C409.85,116.272 410.048,116.214 410.36,116.214C410.772,116.214 411.339,116.178 411.782,116.053C412.6,115.803 412.73,114.886 412.756,112.131L413.043,93.423C413.043,92.787 413.136,92.345 413.454,92.345C413.798,92.345 414.084,92.756 414.621,93.324C414.996,93.735 419.793,98.886 424.397,103.475C426.543,105.621 430.793,110.173 431.329,110.683L431.485,110.683L431.168,96.49C431.136,94.563 430.855,93.959 430.105,93.647C429.626,93.454 428.871,93.454 428.433,93.454C428.048,93.454 427.928,93.365 427.928,93.173C427.928,92.917 428.272,92.886 428.74,92.886C430.381,92.886 431.897,92.985 432.558,92.985C432.902,92.985 434.1,92.886 435.652,92.886C436.063,92.886 436.376,92.917 436.376,93.173C436.376,93.365 436.188,93.454 435.803,93.454C435.49,93.454 435.235,93.454 434.86,93.553C433.975,93.808 433.725,94.47 433.699,96.24L433.35,116.183C433.35,116.886 433.225,117.167 432.938,117.167C432.595,117.167 432.214,116.819 431.871,116.464C429.881,114.569 425.845,110.428 422.563,107.173C419.126,103.761 415.626,99.808 415.058,99.209L414.964,99.209L415.308,112.48Z" style="fill:rgb(106,111,114);fill-rule:nonzero;"/>
    <path d="M445.011,102.053C445.011,97.246 445.011,96.36 444.949,95.35C444.886,94.277 444.636,93.772 443.595,93.548C443.345,93.485 442.808,93.449 442.365,93.449C442.022,93.449 441.829,93.391 441.829,93.167C441.829,92.949 442.053,92.881 442.527,92.881C444.199,92.881 446.188,92.98 447.063,92.98C448.074,92.98 454.35,92.98 454.954,92.949C455.553,92.881 456.053,92.819 456.303,92.756C456.464,92.725 456.652,92.631 456.813,92.631C456.964,92.631 457.001,92.756 457.001,92.912C457.001,93.136 456.845,93.511 456.751,94.964C456.714,95.282 456.657,96.678 456.595,97.053C456.558,97.214 456.496,97.407 456.277,97.407C456.053,97.407 455.99,97.24 455.99,96.959C455.99,96.74 455.954,96.204 455.803,95.824C455.579,95.251 455.267,94.871 453.688,94.683C453.157,94.621 449.845,94.553 449.209,94.553C449.058,94.553 448.985,94.652 448.985,94.871L448.985,102.871C448.985,103.095 449.022,103.214 449.209,103.214C449.902,103.214 453.527,103.214 454.261,103.157C455.017,103.095 455.49,103.001 455.777,102.678C455.996,102.433 456.121,102.266 456.282,102.266C456.407,102.266 456.506,102.329 456.506,102.522C456.506,102.709 456.345,103.214 456.251,104.829C456.188,105.459 456.126,106.725 456.126,106.938C456.126,107.194 456.126,107.542 455.845,107.542C455.615,107.542 455.553,107.417 455.553,107.261C455.522,106.938 455.522,106.532 455.428,106.121C455.272,105.49 454.829,105.016 453.662,104.886C453.063,104.829 449.944,104.792 449.183,104.792C449.027,104.792 448.99,104.923 448.99,105.11L448.99,107.61C448.99,108.678 448.959,111.589 448.99,112.506C449.058,114.688 449.563,115.157 452.777,115.157C453.595,115.157 454.923,115.157 455.74,114.777C456.558,114.402 456.938,113.735 457.157,112.438C457.22,112.095 457.287,111.964 457.511,111.964C457.761,111.964 457.761,112.214 457.761,112.532C457.761,113.261 457.511,115.412 457.345,116.042C457.121,116.86 456.845,116.86 455.642,116.86C450.876,116.86 448.767,116.673 446.907,116.673C446.183,116.673 444.194,116.766 442.933,116.766C442.522,116.766 442.303,116.673 442.303,116.454C442.303,116.292 442.433,116.199 442.808,116.199C443.282,116.199 443.662,116.136 443.944,116.069C444.574,115.944 444.735,115.251 444.855,114.329C445.017,113.006 445.017,110.506 445.017,107.6L445.017,102.053L445.011,102.053Z" style="fill:rgb(106,111,114);fill-rule:nonzero;"/>
    <path d="M463.761,95.98C463.381,94.813 463.037,94.058 462.595,93.735C462.251,93.511 461.621,93.449 461.334,93.449C461.022,93.449 460.829,93.423 460.829,93.167C460.829,92.949 461.084,92.886 461.527,92.886C463.162,92.886 464.902,92.98 465.183,92.98C465.47,92.98 466.855,92.886 468.683,92.886C469.121,92.886 469.345,92.98 469.345,93.167C469.345,93.423 469.095,93.449 468.777,93.449C468.527,93.449 468.214,93.449 467.99,93.579C467.709,93.709 467.647,93.928 467.647,94.277C467.647,94.688 467.964,95.766 468.339,97.188C468.881,99.277 471.813,108.855 472.376,110.626L472.47,110.626L478.589,94.152C478.933,93.272 479.126,93.016 479.376,93.016C479.72,93.016 479.881,93.49 480.287,94.501L486.845,110.402L486.938,110.402C487.511,108.282 490.037,99.938 491.136,96.24C491.36,95.511 491.454,94.85 491.454,94.402C491.454,93.902 491.168,93.454 489.938,93.454C489.621,93.454 489.407,93.365 489.407,93.173C489.407,92.949 489.652,92.886 490.131,92.886C491.798,92.886 493.126,92.985 493.407,92.985C493.631,92.985 494.985,92.886 496.027,92.886C496.371,92.886 496.595,92.949 496.595,93.136C496.595,93.365 496.438,93.454 496.157,93.454C495.834,93.454 495.402,93.49 495.053,93.615C494.298,93.902 493.954,95.162 493.287,96.964C491.834,100.949 488.522,111.001 486.98,115.74C486.631,116.845 486.47,117.225 486.063,117.225C485.751,117.225 485.563,116.845 485.089,115.683L478.527,99.839L478.464,99.839C477.871,101.454 473.673,112.641 472.319,115.553C471.714,116.845 471.558,117.225 471.178,117.225C470.865,117.225 470.709,116.881 470.459,116.058L463.761,95.98Z" style="fill:rgb(106,111,114);fill-rule:nonzero;"/>
    <path d="M516.975,108.595C516.975,106.886 516.657,106.194 516.251,105.272C516.027,104.766 511.803,97.813 510.704,96.173C509.918,95.001 509.126,94.214 508.527,93.871C508.11,93.641 507.579,93.449 507.199,93.449C506.949,93.449 506.725,93.391 506.725,93.167C506.725,92.98 506.949,92.886 507.324,92.886C507.892,92.886 510.261,92.98 511.298,92.98C511.959,92.98 513.256,92.886 514.678,92.886C514.99,92.886 515.147,92.98 515.147,93.167C515.147,93.36 514.928,93.391 514.449,93.511C514.168,93.579 514.011,93.829 514.011,94.084C514.011,94.339 514.168,94.714 514.386,95.162C514.829,96.105 519.251,103.72 519.751,104.605C520.063,103.845 524.037,96.891 524.475,95.912C524.798,95.214 524.923,94.678 524.923,94.266C524.923,93.954 524.787,93.605 524.261,93.48C523.975,93.417 523.688,93.35 523.688,93.162C523.688,92.938 523.845,92.876 524.225,92.876C525.272,92.876 526.272,92.97 527.188,92.97C527.886,92.97 529.964,92.876 530.569,92.876C530.907,92.876 531.131,92.938 531.131,93.126C531.131,93.35 530.881,93.444 530.532,93.444C530.214,93.444 529.615,93.574 529.142,93.824C528.48,94.141 528.136,94.522 527.438,95.371C526.397,96.631 521.99,104.063 521.418,105.423C520.944,106.563 520.944,107.542 520.944,108.584L520.944,111.173C520.944,111.683 520.944,113.006 521.037,114.339C521.1,115.251 521.386,115.949 522.329,116.074C522.772,116.136 523.464,116.199 523.907,116.199C524.256,116.199 524.418,116.292 524.418,116.454C524.418,116.678 524.162,116.772 523.756,116.772C521.761,116.772 519.777,116.678 518.928,116.678C518.136,116.678 516.152,116.772 514.985,116.772C514.543,116.772 514.287,116.709 514.287,116.454C514.287,116.292 514.444,116.199 514.798,116.199C515.235,116.199 515.615,116.141 515.902,116.074C516.532,115.949 516.808,115.251 516.876,114.339C516.97,113.006 516.97,111.683 516.97,111.173L516.97,108.589L516.975,108.589L516.975,108.595Z" style="fill:rgb(106,111,114);fill-rule:nonzero;"/>
    <path d="M532.115,104.834C532.115,99.428 535.683,92.444 545.142,92.444C552.996,92.444 557.881,97.027 557.881,104.266C557.881,111.506 552.839,117.225 544.829,117.225C535.777,117.225 532.115,110.428 532.115,104.834M553.47,105.433C553.47,98.35 549.402,93.959 544.225,93.959C540.6,93.959 536.47,95.975 536.47,103.85C536.47,110.428 540.1,115.641 546.157,115.641C548.355,115.641 553.47,114.574 553.47,105.433" style="fill:rgb(106,111,114);fill-rule:nonzero;"/>
    <path d="M566.095,102.053C566.095,97.251 566.095,96.36 566.032,95.35C565.97,94.277 565.709,93.777 564.673,93.548C564.423,93.49 563.886,93.449 563.444,93.449C563.1,93.449 562.912,93.391 562.912,93.167C562.912,92.949 563.131,92.886 563.605,92.886C565.277,92.886 567.261,92.98 567.923,92.98C568.996,92.98 571.397,92.886 572.371,92.886C574.36,92.886 576.47,93.074 578.173,94.24C579.053,94.845 580.313,96.454 580.313,98.569C580.313,100.912 579.339,103.063 576.152,105.652C578.959,109.194 581.136,112.011 582.996,113.964C584.761,115.798 586.058,116.022 586.532,116.115C586.876,116.183 587.157,116.209 587.412,116.209C587.662,116.209 587.787,116.303 587.787,116.464C587.787,116.714 587.569,116.782 587.188,116.782L584.194,116.782C582.428,116.782 581.642,116.626 580.813,116.183C579.464,115.454 578.261,113.964 576.496,111.532C575.235,109.798 573.782,107.647 573.376,107.173C573.22,106.985 573.032,106.944 572.808,106.944L570.069,106.886C569.912,106.886 569.819,106.944 569.819,107.136L569.819,107.579C569.819,110.516 569.819,113.016 569.97,114.339C570.069,115.261 570.256,115.954 571.204,116.079C571.678,116.141 572.371,116.204 572.746,116.204C572.996,116.204 573.126,116.303 573.126,116.464C573.126,116.683 572.897,116.777 572.496,116.777C570.668,116.777 568.334,116.683 567.86,116.683C567.261,116.683 565.277,116.777 564.011,116.777C563.605,116.777 563.381,116.683 563.381,116.464C563.381,116.303 563.511,116.204 563.892,116.204C564.36,116.204 564.74,116.147 565.027,116.079C565.657,115.949 565.813,115.261 565.944,114.339C566.1,113.011 566.1,110.516 566.1,107.61L566.095,102.053ZM569.813,104.548C569.813,104.897 569.871,105.022 570.1,105.121C570.761,105.345 571.709,105.438 572.496,105.438C573.751,105.438 574.173,105.313 574.735,104.902C575.678,104.204 576.595,102.751 576.595,100.157C576.595,95.667 573.631,94.371 571.767,94.371C570.98,94.371 570.412,94.407 570.1,94.501C569.871,94.563 569.813,94.694 569.813,94.944L569.813,104.548Z" style="fill:rgb(106,111,114);fill-rule:nonzero;"/>
    <path d="M595.35,103.444L595.517,103.444C596.579,102.277 601.188,97.558 602.105,96.49C602.985,95.444 603.678,94.657 603.678,94.115C603.678,93.772 603.553,93.548 603.235,93.485C602.954,93.423 602.829,93.36 602.829,93.167C602.829,92.949 602.98,92.886 603.334,92.886C603.996,92.886 605.73,92.98 606.579,92.98C607.558,92.98 609.293,92.886 610.267,92.886C610.589,92.886 610.803,92.949 610.803,93.167C610.803,93.391 610.647,93.449 610.329,93.449C609.892,93.449 609.1,93.579 608.506,93.798C607.527,94.183 606.454,94.845 605.1,96.167C604.121,97.115 599.36,101.86 598.287,103.006C599.418,104.485 605.6,111.152 606.834,112.324C608.22,113.652 609.642,115.074 611.339,115.74C612.287,116.121 612.918,116.214 613.293,116.214C613.517,116.214 613.704,116.277 613.704,116.47C613.704,116.688 613.548,116.782 612.949,116.782L610.204,116.782C609.261,116.782 608.694,116.782 608.032,116.72C606.324,116.569 605.48,115.865 604.121,114.667C602.735,113.433 596.522,106.131 595.86,105.22L595.517,104.74L595.35,104.74L595.35,107.621C595.35,110.532 595.35,113.022 595.449,114.381C595.517,115.266 595.793,115.964 596.579,116.089C597.022,116.152 597.725,116.22 598.131,116.22C598.381,116.22 598.537,116.313 598.537,116.47C598.537,116.694 598.293,116.787 597.938,116.787C596.173,116.787 594.183,116.694 593.402,116.694C592.678,116.694 590.688,116.787 589.428,116.787C589.017,116.787 588.798,116.694 588.798,116.47C588.798,116.313 588.923,116.22 589.303,116.22C589.777,116.22 590.152,116.157 590.438,116.089C591.069,115.964 591.225,115.266 591.355,114.355C591.511,113.022 591.511,110.532 591.511,107.621L591.511,102.053C591.511,97.251 591.511,96.36 591.449,95.35C591.386,94.277 591.126,93.777 590.089,93.548C589.845,93.49 589.303,93.454 588.86,93.454C588.517,93.454 588.329,93.391 588.329,93.173C588.329,92.949 588.548,92.886 589.027,92.886C590.699,92.886 592.683,92.98 593.433,92.98C594.194,92.98 596.178,92.886 597.256,92.886C597.694,92.886 597.918,92.949 597.918,93.173C597.918,93.391 597.73,93.454 597.47,93.454C597.157,93.454 596.964,93.49 596.589,93.548C595.74,93.704 595.49,94.246 595.428,95.35C595.365,96.36 595.365,97.251 595.365,102.053L595.365,103.444L595.35,103.444Z" style="fill:rgb(106,111,114);fill-rule:nonzero;"/>
    <path d="M73.933,26.74C73.147,22.162 69.459,18.975 64.938,18.61C56.865,17.959 49.902,22.287 42.069,23.673C41.444,23.782 40.6,22.444 39.839,21.683C43.475,18.938 42.98,13.558 38.772,11.235C38.48,10.907 38.589,7.808 38.756,7.667C39.095,7.381 41.782,7.897 42.162,7.563C42.543,7.235 42.464,4.011 42.22,3.699C41.98,3.391 38.954,3.725 38.782,3.516C38.615,3.303 38.865,0.402 38.584,0.178C38.381,0.011 37.543,-0.004 37.074,0.001C36.61,-0.004 35.767,0.011 35.563,0.178C35.282,0.407 35.532,3.303 35.365,3.516C35.194,3.725 32.173,3.391 31.928,3.699C31.683,4.011 31.61,7.235 31.99,7.563C32.371,7.897 35.053,7.381 35.397,7.667C35.558,7.808 35.668,10.907 35.376,11.24C31.173,13.563 30.678,18.938 34.308,21.683C33.548,22.449 32.709,23.782 32.079,23.678C24.251,22.287 17.282,17.959 9.209,18.61C4.694,18.975 1.001,22.162 0.214,26.746C-1.197,34.99 4.714,41.329 7.584,48.329C8.49,50.537 9.287,53.511 9.142,56.063C9.142,56.063 32.584,56.063 36.756,56.069L37.392,56.069C41.569,56.063 65.006,56.063 65.006,56.063C64.865,53.511 65.662,50.537 66.569,48.329C69.438,41.329 75.35,34.99 73.933,26.74M33.735,45.006C33.011,49.147 30.714,51.772 28.808,51.787C27.553,51.798 26.548,51.319 25.636,50.516C24.381,49.412 23.355,47.6 23.683,46.527C23.959,46.167 27.35,46.683 27.589,46.35C27.829,46.011 27.178,43.365 26.793,43.022C26.412,42.683 23.355,43.141 22.944,42.803C22.537,42.464 22.157,39.188 21.735,38.99C21.735,38.99 18.501,38.506 18.267,38.964C18.032,39.433 19.36,42.167 19.131,42.631C18.902,43.1 14.621,42.225 14.548,42.704C14.47,43.188 14.793,45.6 15.204,45.954C15.615,46.313 19.61,46.334 19.61,46.334C20.444,46.97 20.662,48.261 20.668,49.584C20.673,51.261 19.371,52.131 17.293,51.548C13.423,50.459 8.626,42.042 5.777,36.22C3.683,31.938 2.423,24.928 7.918,22.829C11.267,21.548 14.777,22.272 18.381,23.345C22.157,24.47 27.136,25.99 30.069,27.819C30.787,28.261 29.214,27.907 31.819,33.688C33.027,36.381 34.24,42.115 33.735,45.006M56.855,51.548C54.782,52.131 53.48,51.261 53.485,49.584C53.49,48.261 53.704,46.97 54.537,46.334C54.537,46.334 58.537,46.313 58.949,45.954C59.355,45.6 59.678,43.188 59.605,42.704C59.527,42.225 55.246,43.1 55.022,42.631C54.793,42.167 56.121,39.433 55.881,38.964C55.647,38.506 52.412,38.99 52.412,38.99C51.996,39.188 51.615,42.464 51.204,42.803C50.798,43.136 47.74,42.683 47.36,43.022C46.975,43.365 46.324,46.011 46.558,46.35C46.803,46.683 50.188,46.167 50.47,46.527C50.798,47.6 49.772,49.412 48.511,50.516C47.6,51.319 46.595,51.798 45.345,51.787C43.433,51.772 41.142,49.147 40.418,45.006C39.907,42.115 41.126,36.381 42.334,33.688C44.938,27.907 43.36,28.261 44.079,27.819C47.017,25.99 51.996,24.47 55.767,23.345C59.371,22.272 62.886,21.542 66.235,22.829C71.73,24.928 70.464,31.938 68.371,36.22C65.527,42.042 60.725,50.459 56.855,51.548" style="fill:rgb(106,111,114);fill-rule:nonzero;"/>
    <rect x="8.517" y="59.897" width="57.12" height="4.865" style="fill:rgb(106,111,114);fill-rule:nonzero;"/>
</svg>
