<?xml version="1.0" encoding="UTF-8" standalone="no"?>
<!DOCTYPE svg PUBLIC "-//W3C//DTD SVG 1.1//EN" "http://www.w3.org/Graphics/SVG/1.1/DTD/svg11.dtd">
<svg width="735px" height="95px" version="1.1" xmlns="http://www.w3.org/2000/svg" xmlns:xlink="http://www.w3.org/1999/xlink" xml:space="preserve" xmlns:serif="http://www.serif.com/" style="fill-rule:evenodd;clip-rule:evenodd;stroke-linejoin:round;stroke-miterlimit:2;">
    <path d="M257.547,0C257.339,0 257.021,0.094 256.63,0.276C256.542,0.323 256.438,0.354 256.354,0.401C253.609,1.677 248.906,2.734 242.188,3.589L242.188,6.224C245.964,6.224 248.083,6.333 248.547,6.547C248.88,6.667 249.13,6.891 249.281,7.182C249.505,7.62 249.672,9.651 249.802,13.318C249.984,18.74 250.068,24.016 250.068,29.094L250.068,48.094C249.911,56.443 249.818,60.823 249.802,61.224C249.729,62.781 249.531,63.87 249.193,64.474C248.818,65.094 248.188,65.5 246.828,65.563L242.458,65.615L242.458,68.255C250.427,67.995 253.625,67.969 254.313,67.969C260.099,68.042 264.12,68.188 265.297,68.255L265.297,65.615C262.094,65.557 260.385,65.5 260.172,65.469C259.677,65.354 259.313,65.193 259.068,65.005C258.188,64.281 258,63.063 257.958,60.938C257.932,60.307 257.828,56.016 257.682,48.078L257.786,17.167C257.786,17.167 258.203,1.292 258.234,0.771C258.234,0.531 258.172,0.344 258.052,0.198C257.938,0.063 257.755,0 257.547,0ZM285.307,0C284.781,0.094 283.922,0.5 282.807,0.932C279.974,1.979 275.703,2.859 269.943,3.589L269.943,6.224C273.724,6.224 275.849,6.333 276.302,6.547C276.646,6.667 276.885,6.891 277.036,7.182C277.255,7.62 277.427,9.651 277.557,13.318C277.74,18.74 277.833,24.016 277.833,29.099L277.833,48.094C277.667,56.443 277.583,60.823 277.557,61.224C277.49,62.781 277.292,63.87 276.948,64.474C276.578,65.094 275.938,65.5 274.573,65.563L270.219,65.615L270.219,68.255C277.599,68 280.932,67.969 282.068,67.969C287.005,68.026 290.901,68.156 293.052,68.255L293.052,65.615C289.859,65.557 288.141,65.5 287.927,65.469C287.427,65.354 287.068,65.193 286.823,65.005C285.938,64.281 285.76,63.063 285.714,60.938C285.682,60.307 285.599,56.016 285.438,48.078L285.542,17.167C285.542,17.167 285.953,1.292 285.99,0.771C285.99,0.531 285.938,0.349 285.807,0.203C285.688,0.063 285.526,0 285.307,0ZM36.854,1.823C25.646,2.036 16.755,5.203 10.188,11.391C3.401,17.797 0,25.854 0,35.594C0,43.286 2.057,49.667 5.906,55.161C9.74,60.646 15.859,65.328 23.984,67.703C28.047,68.891 32.406,69.49 37.177,69.49C41.203,69.49 44.927,69.073 48.344,68.271C51.766,67.458 55.255,66.146 58.828,64.339L60.615,60.063L59.833,59.104C57.422,60.818 54.995,62.083 52.557,62.885C48.656,64.172 44.297,64.719 39.818,64.594C31.073,64.375 23.979,61.589 18.563,56.198C12.922,50.557 10.104,43.13 10.104,33.875C10.135,28.599 10.88,24.208 12.354,20.708C13.818,17.219 15.714,14.333 18.021,12.057C22.505,7.635 28.078,5.651 36.406,5.422C36.635,5.411 36.849,5.406 37.083,5.406C48.714,5.406 54.693,8.292 55.313,14.271L55.349,19.656L58.12,19.656C58.302,16.24 58.641,13.229 59.12,10.641C59.448,9.021 59.953,7.37 60.609,5.693C59.849,5.542 57.771,5.005 54.365,4.104C50.964,3.203 48.073,2.609 45.703,2.281C43.01,1.917 39.969,1.786 36.854,1.823ZM313.547,3.172L313.547,6.089C317.078,6.135 319.219,6.313 319.969,6.573C320.734,6.823 321.281,7.229 321.62,7.75C321.964,8.281 322.172,10.005 322.266,12.901C322.453,16.87 322.552,20.917 322.552,25.068L322.552,45.281C322.552,51.182 322.974,55.365 323.833,57.87C324.5,59.766 325.734,61.609 327.536,63.438C331.141,67.063 338.203,69.49 347.651,69.49C355.708,69.49 362.583,67.495 366.792,64.094C369.604,61.807 371.531,59.161 372.583,56.172C373.635,53.188 374.161,47.927 374.161,40.391L374.161,25.068C374.26,17.021 374.391,12.693 374.578,12.073C374.667,9.729 374.896,8.245 375.255,7.646C375.557,7.172 376.073,6.823 376.839,6.573C377.604,6.313 379.745,6.141 383.297,6.089L383.297,3.172C376.13,3.406 371.458,3.458 370.193,3.438C367.943,3.406 364.891,3.318 361.021,3.172L361.021,6.089C364.531,6.141 366.687,6.313 367.458,6.573C368.234,6.823 368.797,7.219 369.13,7.75C369.469,8.281 369.677,10 369.734,12.891C369.927,16.854 370.021,20.922 370.021,25.063L370.021,39.13C370.021,47.125 369.469,52.193 368.172,55.172C366.859,58.167 364.526,60.62 359.224,62.281C356.573,63.12 353.547,63.542 350.135,63.542C344.26,63.542 339.333,62.188 336.521,60.115C334.693,58.745 333.365,57.01 332.521,54.917C331.682,52.828 331.26,48.51 331.26,41.958L331.26,25.063C331.401,17.016 331.49,12.693 331.536,12.078C331.625,9.734 331.859,8.25 332.255,7.641C332.516,7.177 333.047,6.823 333.823,6.578C334.599,6.313 336.75,6.141 340.26,6.094L340.26,3.177C333.557,3.396 326.635,3.458 325.089,3.443C321.474,3.422 317.646,3.333 313.547,3.177L313.547,3.172ZM639.854,3.724C638.406,3.724 637.214,4.229 636.214,5.234C635.208,6.24 634.703,7.448 634.703,8.87C634.703,10.271 635.208,11.469 636.214,12.474C638.208,14.469 641.422,14.49 643.432,12.474C644.443,11.469 644.943,10.271 644.943,8.87C644.943,7.448 644.453,6.24 643.464,5.234C642.479,4.229 641.276,3.724 639.854,3.724ZM449.12,3.734C447.698,3.734 446.49,4.234 445.479,5.234C444.479,6.24 443.979,7.453 443.979,8.875C443.979,10.271 444.479,11.474 445.479,12.474C446.484,13.479 447.703,13.984 449.12,13.984C450.516,13.984 451.708,13.479 452.708,12.474C453.708,11.474 454.219,10.271 454.219,8.875C454.219,7.453 453.729,6.24 452.734,5.234C451.755,4.234 450.547,3.734 449.12,3.734ZM668.719,9.823C666.771,11.078 664.224,12.25 661.089,13.359L661.089,27.276C659.344,28.135 656.979,29.104 654.021,30.193L654.021,32.109C658.641,31.859 661.089,31.833 661.089,31.833C661.089,31.833 661.083,51.599 661.021,52.641C660.911,55.125 660.839,57.427 660.802,59.516C660.958,61.698 661.318,63.297 661.865,64.313C662.964,66.349 664.589,67.646 666.49,68.38C667.448,68.745 668.75,68.938 670.333,68.938C672.938,68.938 674.708,68.729 677.01,67.885C678.344,66.661 679.729,65.49 681.151,64.359L680.599,62.583C679.62,62.932 678.813,63.146 678.104,63.276C677.958,63.307 677.771,63.365 677.635,63.375C676.854,63.49 675.839,63.542 674.578,63.542C674.391,63.526 674.234,63.484 674.057,63.458C671.141,63.01 670.188,62.271 669.375,61.016C668.948,60.349 668.661,59.568 668.5,58.672C668.349,57.771 668.328,55.026 668.417,50.417L668.693,31.557C676.26,31.516 678.901,31.542 680.74,31.557L681.703,27.557L681.38,27.276C674.943,27.563 672.823,27.589 671.349,27.578C670.646,27.568 669.786,27.552 668.693,27.542C669.094,18.88 669.464,13.281 669.802,10.74L668.719,9.828L668.719,9.823ZM90.016,23.807C83.224,23.807 77.667,25.958 73.318,30.307C68.984,34.641 66.813,40.229 66.813,47.083C66.813,50.885 67.516,54.453 68.911,57.797C70.495,61.589 73.438,65.443 78.344,67.839C80.797,69.036 83.781,69.635 87.318,69.635C91.844,69.635 96.01,68.583 99.786,66.49C103.557,64.391 106.474,61.49 108.552,57.797C110.615,54.078 111.656,49.984 111.656,45.526C111.656,39.12 109.641,33.911 105.625,29.87C101.609,25.839 96.401,23.807 90.016,23.807ZM223.026,23.807C218.052,23.807 213.974,25.38 209.661,28.328C207.797,29.604 206.432,30.729 205.542,31.703C204.323,33.052 203.234,35.146 202.266,37.969C201.313,40.802 200.833,43.979 200.833,47.5C200.833,56.505 204.651,63.464 211.156,66.823C214.411,68.505 218.063,69.359 222.073,69.359C226.161,69.359 229.943,68.349 232.807,67.042C233.776,66.615 235.323,65.724 237.422,64.396L238.891,61.109L238.151,60.323C235.438,62.016 233.151,63.109 231.313,63.734C226.719,65.26 222.073,64.88 217.802,62.708C212.703,60.109 209.672,54.776 209.552,45.958L224.219,45.958C227.516,45.958 230.807,45.833 234.099,45.589C235.844,45.479 237.802,45.193 239.995,44.771C240.177,43.552 240.271,42.505 240.271,41.646C240.271,34.87 237.813,29.271 232.281,26.146C229.531,24.589 226.438,23.807 223.026,23.807ZM531.25,23.807C526.302,23.807 522.208,25.38 517.885,28.328C516.026,29.604 514.646,30.729 513.766,31.703C512.547,33.052 511.453,35.146 510.5,37.969C509.531,40.802 509.057,43.979 509.057,47.5C509.057,56.505 512.875,63.464 519.38,66.823C522.641,68.505 526.255,69.359 530.297,69.359C534.375,69.359 538.172,68.349 541.031,67.042C542,66.615 543.542,65.724 545.646,64.396L547.115,61.109L546.375,60.323C543.646,61.984 541.375,63.109 539.536,63.734C534.969,65.245 530.333,64.891 526.036,62.708C520.943,60.109 517.891,54.776 517.766,45.958L532.443,45.958C535.734,45.958 539.031,45.833 542.323,45.589C544.057,45.479 546.026,45.193 548.219,44.771C548.401,43.552 548.495,42.505 548.495,41.646C548.495,34.87 546.036,29.271 540.505,26.146C537.755,24.589 534.672,23.807 531.25,23.807ZM605.917,23.865C603.219,24.021 600.688,24.604 598.359,25.708C592.938,28.234 590.516,32.469 590.516,37.266C590.516,40.563 591.797,43.484 593.807,45.302C594.813,46.219 596.156,47 597.865,47.641C598.995,48.036 601.49,48.672 605.354,49.557C609.214,50.443 611.734,51.156 612.906,51.708C615.255,52.802 616.531,54.818 616.531,57.37C616.531,60.229 615.526,62.479 613.542,64.12C611.547,65.771 609,66.583 605.896,66.583C604.615,66.568 603.073,66.526 601.672,66.401C599.807,66.156 597.964,65.417 596.438,64.047C594.911,62.667 594.281,60.552 593.969,58.479C593.818,57.438 593.724,56.036 593.693,54.26L591.073,54.26C591.021,58.219 590.948,60.828 590.854,62.078C590.594,64.604 590.276,66.203 590.24,66.688C590.24,66.901 590.307,67.036 590.427,67.141C590.609,67.328 591.891,67.656 594.286,68.13C598.609,68.948 602.094,69.354 604.682,69.354C610.354,69.354 614.875,67.828 618.25,64.776C621.63,61.714 623.323,58.13 623.323,54.021C623.323,49.896 621.391,46.854 618.516,45.453C617.078,44.766 614.443,43.932 610.625,42.948L603.078,41.083C600.224,40.229 598.797,39.276 597.865,37.563C597.396,36.714 597.161,35.698 597.161,34.5C597.161,32.38 597.969,30.536 599.594,28.943C601.208,27.37 603.385,26.568 606.01,26.568C611.625,26.568 614.635,29.078 615.641,30.719C615.974,31.26 616.234,31.891 616.427,32.583C616.63,33.281 616.797,34.745 616.948,36.964L619.573,36.964C619.656,33.438 619.792,29.979 619.99,26.568C618.417,25.786 616.365,25.13 613.844,24.594C610.75,23.948 608.229,23.771 605.917,23.865ZM177.776,24.083C175.438,24.036 172.948,24.479 170.297,25.448L161.776,32.745C161.885,28.573 162.042,25.698 162.052,25.26C162.052,24.953 161.99,24.729 161.87,24.583C161.755,24.438 161.573,24.365 161.359,24.365C161.146,24.365 160.74,24.51 160.125,24.802C160.089,24.823 160.052,24.844 160.01,24.859C157.146,26.182 152.667,27.271 146.552,28.099L146.552,30.729L146.906,30.729C150.125,30.708 151.979,30.771 152.443,30.927C152.922,31.099 153.255,31.354 153.458,31.688C153.651,32.021 153.792,33.094 153.885,34.88C154.068,37.672 154.172,40.286 154.172,42.719C154.172,42.719 153.974,56.479 153.885,61.229C153.792,62.786 153.578,63.865 153.24,64.469C152.875,65.089 152.219,65.505 150.932,65.573L146.552,65.609L146.552,68.25C155.276,68 158.339,67.964 159.156,67.964C164.427,68.026 168.036,68.177 169.344,68.25L169.344,65.609C166.161,65.552 164.49,65.495 164.302,65.469C163.281,65.234 162.849,64.833 162.615,64.281C162.297,63.578 162.115,62.464 162.052,60.938C161.953,56.005 161.776,42.516 161.776,42.516C161.776,39.156 162.182,36.755 162.99,35.333C163.802,33.917 165.151,32.656 167.047,31.552C168.938,30.448 171.042,29.891 173.333,29.891C178.536,29.891 182.474,32.646 183.51,36.74C183.88,38.245 184.052,41.385 184.052,46.193L184.052,53.917C184.052,55.906 183.88,60.651 183.51,68.156C183.51,68.188 183.5,68.219 183.5,68.25C189.104,68 191.161,67.964 191.828,67.964C195.115,68.016 197.818,68.172 199.141,68.25L199.141,65.609L194.365,65.469C193.047,65.292 192.505,64.729 192.219,62.911C192.031,61.469 191.943,58.766 191.943,54.792L191.943,46.688C191.943,40.385 191.833,36.552 191.63,35.172C190.896,30.547 188.828,27.609 184.411,25.599C182.318,24.641 180.12,24.12 177.776,24.078L177.776,24.083ZM411.776,24.083C409.432,24.047 406.958,24.495 404.344,25.448L395.833,32.745C395.937,28.646 396.099,25.698 396.109,25.26C396.109,24.953 396.042,24.729 395.922,24.583C395.807,24.438 395.635,24.365 395.417,24.365C395.208,24.365 394.807,24.5 394.214,24.792C394.203,24.792 394.193,24.807 394.177,24.807C391.318,26.156 386.797,27.271 380.615,28.104L380.615,30.734L381.016,30.734C384.193,30.714 386.026,30.776 386.495,30.932C386.974,31.104 387.318,31.359 387.516,31.693C387.714,32.026 387.849,33.099 387.937,34.885C388.12,37.677 388.219,40.292 388.219,42.724C388.219,42.724 388.026,56.484 387.937,61.234C387.849,62.792 387.641,63.87 387.302,64.474C386.937,65.094 386.286,65.51 384.995,65.578L380.615,65.615L380.615,68.255C389.391,68.005 392.443,67.969 393.224,67.969C398.594,68.042 402.219,68.193 403.396,68.255L403.396,65.615C400.214,65.557 398.526,65.5 398.354,65.469C397.312,65.24 396.906,64.839 396.661,64.286C396.354,63.583 396.172,62.464 396.115,60.938C396.021,56.01 395.839,42.521 395.839,42.521C395.839,39.156 396.234,36.76 397.042,35.339C397.854,33.922 399.214,32.661 401.109,31.557C403.005,30.464 405.068,29.896 407.385,29.896C412.583,29.896 416.521,32.646 417.562,36.745C417.922,38.245 418.115,41.391 418.115,46.198L418.115,53.922C418.115,55.906 417.922,60.656 417.562,68.172C417.562,68.188 417.568,68.224 417.562,68.255C423.245,68.005 425.276,67.969 425.891,67.969C429.292,68.031 432.005,68.177 433.193,68.255L433.193,65.615L428.417,65.474C427.104,65.297 426.578,64.745 426.271,62.917C426.089,61.474 425.995,58.771 425.995,54.797L425.995,46.693C425.995,40.385 425.885,36.557 425.672,35.177C424.953,30.552 422.885,27.615 418.469,25.604C416.349,24.635 414.13,24.12 411.781,24.083L411.776,24.083ZM452.792,24.083C448.755,25.995 443.797,27.281 437.891,27.948L437.891,30.589C441.521,30.589 443.568,30.714 444.047,30.932C444.526,31.161 444.854,31.5 445.042,31.958C445.344,32.807 445.5,35.516 445.5,40.052L445.5,48.094C445.318,56.453 445.224,60.818 445.224,61.234C445.125,62.792 444.911,63.87 444.578,64.474C444.214,65.094 443.562,65.5 442.26,65.563L437.891,65.615L437.891,68.255C445.917,68 448.948,67.969 449.953,67.969C455.021,68.031 459.312,68.177 461.141,68.255L461.141,65.615C457.911,65.557 456.198,65.5 456.01,65.469C455.516,65.354 455.167,65.193 454.911,65.005C454.062,64.318 453.849,63.094 453.797,60.938C453.776,60.307 453.677,56.016 453.521,48.078L453.521,39.745C453.521,36.286 453.615,31.313 453.797,24.813L452.792,24.083ZM643.521,24.083C639.469,26.026 634.521,27.281 628.609,27.948L628.609,30.589C632.24,30.589 634.292,30.714 634.776,30.932C635.25,31.161 635.583,31.5 635.771,31.958C636.083,32.807 636.229,35.516 636.229,40.052L636.229,48.094C636.036,56.453 635.953,60.818 635.953,61.234C635.854,62.792 635.635,63.87 635.307,64.474C634.922,65.094 634.292,65.5 633,65.563L628.609,65.615L628.609,68.255C636.813,68 639.792,67.969 640.682,67.969C646,68.031 650.344,68.188 651.87,68.255L651.87,65.615C648.641,65.557 646.922,65.5 646.74,65.469C646.245,65.354 645.88,65.193 645.635,65.005C644.786,64.318 644.583,63.094 644.536,60.938C644.51,60.307 644.411,56.016 644.25,48.078L644.25,39.745C644.25,36.286 644.349,31.313 644.536,24.813L643.521,24.083ZM139.833,24.156C136.969,23.865 134.13,24.896 132.073,26.693C131.552,27.156 130.719,28.161 129.568,29.724C128.406,31.281 127.156,32.865 125.786,34.443C125.865,29.125 126.063,25.708 126.073,25.26C126.073,24.953 126.005,24.729 125.885,24.583C125.76,24.438 125.594,24.365 125.38,24.365C125.167,24.365 124.745,24.51 124.135,24.802C123.964,24.891 123.776,24.969 123.594,25.042C120.724,26.292 116.396,27.318 110.568,28.099L110.568,30.729L110.594,30.729C114.016,30.703 115.984,30.776 116.474,30.932C116.979,31.099 117.323,31.354 117.521,31.693C117.719,32.026 117.849,33.094 117.906,34.88C118.089,37.672 118.177,40.292 118.177,42.729C118.177,42.729 118.177,48.516 117.906,60.865C117.813,63.141 117.495,64.422 116.74,65.005C116.479,65.193 116.094,65.349 115.583,65.432C115.307,65.5 113.458,65.557 110.026,65.615L110.026,68.255C116.911,67.99 120.813,67.979 121.411,67.969C128.448,68.042 133.594,68.193 135.208,68.255L135.208,65.615C131.167,65.344 128.688,65.068 127.766,64.797C126.849,64.5 126.531,64.141 126.302,63.104C126.177,62.583 126.104,61.375 126.073,59.484C125.885,54.146 125.792,50.464 125.792,48.448L125.792,43.724C125.792,39.865 126.604,36.958 128.24,35.026C129.865,33.078 131.839,32.109 134.177,32.109C136.948,32.109 138.656,33.38 140.063,36.286L142.125,36.286C142.198,33.208 142.464,29.62 142.948,25.547L142.682,24.906C141.75,24.495 140.786,24.255 139.833,24.156ZM583.641,24.156C580.766,23.87 577.938,24.917 575.891,26.693C575.375,27.156 574.542,28.161 573.385,29.724C571.667,31.948 570.359,33.531 569.604,34.443C569.714,28.245 569.875,25.708 569.891,25.26C569.891,24.953 569.818,24.729 569.698,24.583C569.573,24.438 569.406,24.365 569.198,24.365C568.568,24.51 567.438,25.052 566.224,25.516C563.391,26.552 559.458,27.411 554.38,28.099L554.38,30.729C557.828,30.703 559.792,30.776 560.286,30.932C560.792,31.099 561.141,31.354 561.333,31.693C561.526,32.026 561.667,33.094 561.724,34.88C561.911,37.672 561.99,40.292 561.99,42.729C561.99,42.729 562,48.516 561.724,60.865C561.635,63.141 561.313,64.422 560.552,65.005C560.297,65.193 559.906,65.349 559.396,65.432C559.12,65.5 557.26,65.557 553.833,65.615L553.833,68.255C560.464,68.005 564.359,67.979 565.224,67.969C571.526,68.016 576.552,68.172 579.026,68.255L579.026,65.615C574.984,65.344 572.495,65.068 571.578,64.797C570.667,64.5 570.354,64.141 570.115,63.104C569.99,62.583 569.911,61.375 569.891,59.484C569.708,54.146 569.604,50.464 569.604,48.448L569.604,43.724C569.604,39.865 570.427,36.958 572.052,35.026C573.688,33.094 575.661,32.109 577.99,32.109C580.766,32.109 582.49,33.38 583.885,36.286L585.938,36.286C586.005,33.208 586.276,29.62 586.771,25.547L586.495,24.906C585.557,24.495 584.594,24.255 583.641,24.156ZM460.734,25.328L460.734,27.948C462.578,28.021 463.693,28.104 464.125,28.234C465.161,28.469 465.88,29.094 467.104,31.844L480.25,62.391C480.724,63.464 481.547,65.547 482.74,68.661L487.437,68.661C491.974,57.932 494.625,51.734 495.396,50.042L499.802,40.677C502.672,34.818 504.333,31.536 504.76,30.797C505.375,29.698 506,28.979 506.62,28.62C507.245,28.271 508.51,28.047 510.417,27.948L510.417,25.328C504.13,25.547 501.224,25.615 499.802,25.583C498.219,25.531 495.917,25.453 492.88,25.328L492.88,27.948C496.062,28.047 498.021,28.292 498.755,28.688C499.464,29.068 499.443,29.969 499.167,31.156C498.672,33.078 497.698,35.854 496.229,39.479C493.937,45.188 492.589,48.49 492.052,49.729L487.495,60.073C487.484,60.063 487.469,60.031 487.458,60.021C485.307,54.984 483.089,49.734 483.089,49.734L477.505,35.865C476.286,32.854 475.672,30.891 475.672,29.984C475.672,29.401 475.964,28.943 476.547,28.604C477.125,28.271 479.062,28.047 482.37,27.948L482.37,25.328C475.958,25.547 471.328,25.615 470.12,25.594C467.839,25.552 464.719,25.474 460.734,25.328ZM685.089,25.323L685.089,27.958C687.26,28.208 688.661,28.51 689.286,28.885C689.911,29.271 690.495,29.99 691.042,31.109C692.422,33.927 694.193,38.021 696.354,43.396L703.625,61.422C705,64.839 706.177,67.922 707.151,70.656C705.865,74.031 704.411,77.365 702.807,80.63C701.734,82.745 700.813,84.234 700.026,85.104C698.479,86.839 696.646,87.62 694.745,87.62C694.115,87.62 693.62,87.568 693.188,87.5C693,87.464 692.802,87.438 692.646,87.396C691.708,87.083 691.005,86.531 689.849,85.542L688.734,85.542L686.401,92.609C688.417,93.719 689.839,94.141 691.859,94.141C696.016,94.141 699.557,92.344 702.104,88.99C703.375,87.313 704.911,84.51 706.714,80.583L717.214,55.849C721.865,45.589 725.052,38.708 726.776,35.188C728.495,31.667 729.792,29.589 730.641,28.974C731.5,28.359 732.698,28.031 734.26,27.958L734.714,25.328C731.531,25.5 725.422,25.755 717.089,25.328L717.089,27.958C720.292,28.266 722.135,28.583 722.599,28.917C723.375,29.438 723.453,30.302 723.141,31.578C722.74,32.984 721.349,36.677 718.964,42.661C716.583,48.625 714.922,52.682 713.969,54.813L711.547,60.208C709.307,55.057 704.26,42.698 704.26,42.698C703.193,40.047 702.073,36.854 700.88,33.115C700.365,31.604 700.104,30.635 700.104,30.141C700.104,29.37 700.5,28.839 701.292,28.547C701.75,28.365 703.552,28.177 706.703,27.958L706.703,25.323C701.495,25.536 695.875,25.615 695.01,25.589C691.74,25.573 688.432,25.495 685.089,25.323ZM88.146,26.854C93.443,26.854 97.99,29.469 100.823,36.583C102.24,40.13 102.948,44.354 102.948,49.255C102.948,55.146 101.75,59.505 99.38,62.328C97.016,65.156 94.047,66.583 90.521,66.583C87.76,66.583 85.182,65.672 82.828,63.885C80.464,62.078 78.667,59.229 77.411,55.307C76.167,51.396 75.542,47.557 75.542,43.766C75.542,37.974 76.708,33.708 79.036,30.958C81.365,28.224 84.401,26.854 88.146,26.854ZM221.089,26.854C227.609,26.854 231.839,31.234 231.839,40.932C231.839,41.328 231.833,41.901 231.802,42.635C230.521,42.792 227.849,42.859 223.786,42.859L223.208,42.859C218.49,42.766 212.031,42.547 209.563,42.359C209.594,36.99 210.661,33.068 212.76,30.578C214.87,28.099 217.651,26.854 221.089,26.854ZM529.302,26.854C535.828,26.854 540.068,31.234 540.068,40.932C540.068,41.328 540.047,41.901 540.021,42.635C538.74,42.792 536.063,42.859 532.016,42.859C531.495,42.859 529.375,42.844 522.625,42.635C520.25,42.547 518.635,42.443 517.771,42.359C517.807,36.99 518.88,33.068 520.979,30.578C523.083,28.099 525.88,26.854 529.302,26.854Z" style="fill:rgb(106,111,114);fill-rule:nonzero;"/>
</svg>
