<?xml version="1.0" standalone="no"?>
<!DOCTYPE svg PUBLIC "-//W3C//DTD SVG 20010904//EN"
 "http://www.w3.org/TR/2001/REC-SVG-20010904/DTD/svg10.dtd">
<svg version="1.0" xmlns="http://www.w3.org/2000/svg"
 width="1072.000000pt" height="1072.000000pt" viewBox="0 0 1072.000000 1072.000000"
 preserveAspectRatio="xMidYMid meet">
<metadata>
Created by potrace 1.11, written by Peter Selinger 2001-2013
</metadata>
<g transform="translate(0.000000,1072.000000) scale(0.100000,-0.100000)"
fill="#000000" stroke="none">
<path d="M1868 10714 c-3 -3 -18 -7 -34 -10 -44 -7 -96 -25 -121 -42 -13 -8
-23 -10 -23 -6 0 5 -5 2 -10 -6 -5 -8 -13 -15 -17 -15 -31 -1 -223 -168 -223
-193 0 -7 -4 -12 -10 -12 -9 0 -59 -67 -92 -125 -45 -79 -114 -245 -101 -245
3 0 0 -6 -6 -14 -6 -8 -11 -18 -10 -22 1 -5 0 -11 -1 -14 -1 -3 -4 -16 -7 -30
-4 -14 -7 -2131 -9 -4705 -3 -4835 -3 -4746 33 -4825 3 -8 7 -17 7 -20 1 -3
16 -33 34 -68 32 -61 42 -74 100 -135 63 -66 188 -150 213 -144 4 1 15 -5 25
-14 20 -17 22 -18 154 -48 83 -19 159 -19 3568 -20 2403 0 3482 3 3482 10 0 6
5 7 11 4 13 -8 161 25 170 38 3 5 9 8 13 7 16 -4 66 13 66 22 0 6 3 9 6 5 14
-14 210 107 220 136 3 9 10 17 15 17 14 0 77 69 100 110 10 19 24 42 29 50 14
20 44 91 46 110 2 8 6 26 11 40 4 14 9 1704 10 3756 l3 3731 -67 2 c-37 1 -70
4 -74 7 -4 2 -11 0 -14 -6 -4 -7 -11 -8 -18 -2 -7 5 -21 6 -31 2 -11 -3 -37
-3 -58 0 -21 4 -38 4 -38 -1 0 -4 -12 -5 -27 -2 -16 3 -32 5 -38 5 -13 -1 -66
-2 -85 -2 -8 1 -47 0 -87 -1 -39 -1 -76 1 -81 5 -6 3 -14 2 -17 -4 -4 -7 -11
-8 -18 -2 -7 5 -21 6 -31 2 -11 -3 -37 -3 -58 0 -21 4 -38 4 -38 -1 0 -4 -12
-5 -27 -2 -16 3 -32 5 -38 5 -13 -1 -66 -2 -85 -2 -8 1 -47 0 -87 -1 -39 -1
-76 1 -81 5 -6 3 -14 2 -17 -4 -4 -7 -11 -8 -18 -2 -7 5 -21 6 -31 2 -11 -3
-37 -3 -58 0 -21 4 -38 4 -38 -1 0 -4 -12 -5 -27 -2 -16 3 -32 5 -38 5 -13 -1
-66 -2 -85 -2 -8 1 -48 0 -88 -1 -40 -1 -76 1 -79 5 -3 3 -12 1 -19 -5 -8 -7
-14 -7 -18 0 -4 7 -15 7 -31 1 -13 -5 -27 -5 -30 -1 -3 5 -20 6 -38 2 -31 -8
-76 -5 -85 4 -2 2 -15 0 -28 -5 -14 -6 -26 -6 -29 0 -3 5 -15 6 -27 1 -12 -4
-37 -5 -55 -1 -18 5 -36 4 -39 -1 -3 -5 -13 -5 -24 1 -11 6 -21 6 -25 1 -3 -6
-17 -6 -34 -1 -16 4 -31 7 -33 5 -9 -9 -79 -12 -84 -4 -3 5 -12 5 -21 1 -8 -5
-33 -6 -54 -2 -22 4 -42 3 -45 -1 -3 -5 -14 -5 -24 1 -11 6 -21 6 -24 1 -3 -5
-21 -6 -39 -1 -18 4 -42 3 -54 -1 -22 -8 -34 1 -46 33 -3 10 -2 20 4 24 6 3 6
10 1 17 -5 7 -6 21 -2 32 4 11 4 30 -1 42 -5 13 -4 25 1 28 6 3 6 15 0 29 -5
15 -5 27 3 35 8 8 8 11 -2 11 -7 0 -9 5 -5 11 8 14 8 134 0 148 -4 6 -3 11 3
11 7 0 7 8 1 24 -5 15 -5 27 3 35 8 8 8 11 0 11 -8 0 -9 9 -4 28 4 15 4 43 1
62 -3 19 -3 43 2 52 5 9 4 19 -2 23 -5 3 -6 15 -1 28 5 12 4 35 0 51 -5 16 -4
36 1 46 5 10 6 20 3 24 -10 9 -11 46 -2 46 4 0 4 14 -1 30 -5 17 -5 30 0 30 5
0 5 13 0 30 -5 19 -5 30 1 30 6 0 6 6 0 18 -6 10 -6 24 -1 32 5 8 6 19 3 24
-9 13 -8 58 0 79 3 9 2 19 -3 22 -6 3 -6 15 0 29 5 13 7 26 5 28 -9 8 -13 58
-5 58 5 0 4 15 -1 32 -5 18 -6 34 -2 35 9 3 8 131 0 140 -4 3 -2 14 4 24 6 12
6 19 0 19 -6 0 -6 11 -1 30 5 17 5 30 1 30 -9 0 -8 37 1 46 4 3 3 17 -2 30 -6
14 -6 26 0 29 6 4 6 14 -1 26 -7 14 -7 24 0 32 6 8 6 18 1 27 -5 8 -5 21 0 31
5 9 7 19 4 21 -9 10 -13 48 -4 48 5 0 5 13 0 30 -5 18 -5 30 0 30 6 0 6 10 0
25 -6 15 -6 27 0 30 6 3 6 15 0 29 -5 15 -5 27 2 34 6 6 6 12 -1 16 -7 4 -7
15 -1 31 6 15 6 27 0 30 -6 3 -6 15 0 30 6 15 6 25 0 25 -5 0 -5 12 0 29 4 15
4 34 0 42 -5 7 -5 20 0 29 5 9 5 22 0 30 -5 8 -5 21 0 30 5 9 5 22 0 30 -5 8
-5 21 0 30 5 9 5 22 0 30 -5 8 -5 21 -1 29 4 9 5 27 1 41 -4 14 -3 37 1 53 4
15 4 27 -1 27 -5 0 -5 12 -1 28 4 15 5 38 1 52 l-6 25 -2581 2 c-1419 1 -2583
0 -2585 -3z m2902 -1314 c0 -5 -5 -10 -11 -10 -5 0 -7 5 -4 10 3 6 8 10 11 10
2 0 4 -4 4 -10z m160 0 c0 -5 -5 -10 -11 -10 -5 0 -7 5 -4 10 3 6 8 10 11 10
2 0 4 -4 4 -10z m1520 6 c0 -3 -4 -8 -10 -11 -5 -3 -10 -1 -10 4 0 6 5 11 10
11 6 0 10 -2 10 -4z m-3720 -4046 c0 -5 -4 -10 -10 -10 -5 0 -10 5 -10 10 0 6
5 10 10 10 6 0 10 -4 10 -10z m1125 0 c-3 -5 -12 -10 -18 -10 -7 0 -6 4 3 10
19 12 23 12 15 0z m1115 0 c0 -5 -4 -10 -10 -10 -5 0 -10 5 -10 10 0 6 5 10
10 10 6 0 10 -4 10 -10z"/>
<path d="M7395 10710 c4 -6 6 -41 5 -78 -1 -37 -1 -74 -1 -82 0 -8 0 -85 0
-170 0 -85 0 -164 1 -175 1 -11 1 -32 1 -47 0 -16 0 -45 0 -65 0 -21 -1 -47
-1 -58 -2 -34 -2 -38 -1 -95 0 -30 0 -62 0 -70 0 -8 0 -33 0 -55 1 -22 1 -49
1 -60 -1 -24 -1 -144 -1 -165 0 -12 0 -303 0 -335 0 -5 0 -30 0 -55 0 -25 0
-52 0 -60 0 -8 0 -28 0 -45 1 -16 0 -37 0 -45 -1 -8 -1 -40 0 -70 0 -30 0 -62
0 -70 0 -8 0 -33 0 -55 1 -22 1 -49 1 -60 -1 -29 -1 -147 -1 -165 0 -8 0 -51
1 -94 0 -88 10 -109 43 -97 12 5 31 6 42 4 35 -7 85 -9 85 -3 0 7 69 4 76 -3
3 -2 21 -1 40 3 19 4 36 4 39 0 3 -4 20 -4 39 0 19 4 40 4 47 0 7 -5 22 -5 34
0 12 5 28 4 35 0 8 -5 18 -6 22 -3 12 7 107 8 114 1 3 -4 18 -3 32 1 15 4 41
4 57 1 17 -3 42 -3 56 1 15 4 32 3 40 -1 7 -5 21 -4 30 1 11 6 20 5 24 -1 3
-6 15 -6 30 0 15 6 27 6 30 -1 4 -5 11 -7 16 -3 13 8 107 9 115 1 4 -3 15 -2
25 3 11 7 20 7 24 0 3 -5 15 -6 28 -2 12 5 38 5 57 2 19 -3 50 -3 68 1 17 4
34 3 37 -1 3 -4 20 -4 39 0 19 4 40 4 47 0 7 -5 22 -5 34 0 12 5 28 5 35 0 7
-4 19 -6 26 -3 21 8 114 9 114 1 0 -4 10 -4 23 0 12 5 38 5 57 2 19 -3 47 -3
61 1 15 4 32 3 40 -1 7 -5 21 -4 30 1 11 6 20 5 24 -1 3 -6 15 -6 30 0 15 6
27 6 30 -1 4 -5 11 -7 16 -3 13 8 107 9 115 1 4 -3 15 -2 25 3 11 7 20 7 24 0
3 -6 15 -6 29 0 13 5 27 6 30 3 3 -4 6 162 6 368 l0 374 -25 28 c-14 15 -34
27 -44 27 -10 0 -53 39 -97 87 -107 116 -200 218 -250 270 -23 24 -44 50 -48
58 -3 8 -13 15 -22 15 -10 0 -14 3 -11 7 4 3 -11 24 -33 45 -22 22 -40 41 -40
44 0 3 -45 54 -130 144 -19 20 -69 74 -110 120 -41 45 -95 104 -120 131 -25
26 -58 63 -75 83 -16 19 -33 32 -38 29 -4 -2 -6 0 -5 5 3 9 -110 137 -319 360
-35 37 -63 70 -63 75 0 4 -158 7 -351 7 -241 0 -348 -3 -344 -10z"/>
</g>
</svg>
