<?xml version="1.0" encoding="UTF-8" standalone="no"?>
<!DOCTYPE svg PUBLIC "-//W3C//DTD SVG 1.1//EN" "http://www.w3.org/Graphics/SVG/1.1/DTD/svg11.dtd">
<svg width="614px" height="119px" version="1.1" xmlns="http://www.w3.org/2000/svg" xmlns:xlink="http://www.w3.org/1999/xlink" xml:space="preserve" xmlns:serif="http://www.serif.com/" style="fill-rule:evenodd;clip-rule:evenodd;stroke-linejoin:round;stroke-miterlimit:2;">
    <path d="M82.411,98.036L48.771,51.557L48.771,85.365L62.229,85.365L62.229,118.745L0,118.745L0,85.365L12.609,85.365L12.609,33.385L0,33.385L0,0L48.88,0L82.573,46.901L116.344,0L165.219,0L165.219,33.385L152.604,33.385L152.604,85.365L165.219,85.365L165.219,118.745L102.995,118.745L102.995,85.365L116.443,85.365L116.443,51.557L82.411,98.036Z" style="fill:rgb(106,111,114);fill-rule:nonzero;"/>
    <path d="M415.089,1.63C408.557,1.63 402.938,5.62 402.938,12.75C402.938,20.146 408.823,22.573 411.958,23.703C413.469,24.297 415.089,24.781 416.609,25.37C418.443,26.135 422.594,27.854 422.594,32.172C422.594,36.281 419.036,38 414.979,38C409.26,38 405.745,34.656 403.635,28.453L401.693,28.661L402.25,36.172L405.422,38.495C406.932,39.464 410.12,41.51 415.302,41.51C423.349,41.51 428.75,36.068 428.75,29.484C428.75,24.896 426.26,21.547 423.24,19.766C421.677,18.849 419.901,18.25 417.74,17.557C413.469,16.146 408.984,14.63 408.984,10.099C408.984,7.078 411.359,5.135 415.411,5.135C418.438,5.135 421.026,6.24 422.859,8.609C424.37,10.615 424.865,11.771 425.51,14.255L427.391,13.88L426.156,2.547L423.839,4.214C420.604,2.161 417.63,1.63 415.089,1.63ZM563.604,1.896C551.359,1.839 544.391,11.229 544.391,21.646C544.391,33.797 553.052,41.781 564.12,41.781C574.219,41.781 583.177,34.875 583.177,21.703C583.177,10.151 575.135,1.948 563.604,1.896ZM488.833,2.38L488.833,4.484C492.5,4.703 492.552,4.807 495.307,8.911L505.448,24.62L505.448,31.307C505.396,35.469 505.396,36.438 504.531,37.302C503.771,38.057 502.641,38.167 499.672,38.495L499.672,40.542L518.443,40.542L518.443,38.495C512.781,38.167 512.729,37.63 512.729,30.719L512.729,22.776L518.661,12.849C523.031,5.729 524.161,4.599 527.99,4.484L527.99,2.38L513.104,2.38L513.104,4.484C515.75,4.646 517.307,4.703 517.307,6.536C517.307,7.406 516.776,8.536 515.802,10.427L510.411,19.911L504.583,10.37C503.615,8.75 502.917,7.563 502.917,6.536C502.917,4.703 504.693,4.599 508.682,4.484L508.682,2.38L488.833,2.38ZM365.917,2.422L365.917,4.479C369.047,4.745 370.073,5.125 370.344,7.224C370.505,8.469 370.557,10.083 370.557,14.667L370.557,28.453C370.557,30.021 370.552,31.792 370.5,33.359C370.448,37.453 370.021,38.109 365.917,38.427L365.917,40.547L381.823,40.547L381.823,38.427C377.234,38.328 377.229,37.151 377.177,28.406L377.182,23.458C380.797,23.516 381.552,23.214 383.813,28.01L385.922,32.495C388.943,38.911 391.911,41.396 399.083,41.396C399.948,41.396 400.75,41.349 401.563,41.292L401.563,39.995C398.49,39.573 397.198,38.542 394.771,34.063L388.026,22.323C393.255,20.703 395.521,15.922 395.521,12.25C395.521,6.964 392.557,2.49 383.172,2.49L365.917,2.422ZM332.438,2.427L332.438,4.479C335.188,4.755 336.375,4.911 336.75,6.688C337.021,7.875 337.073,12.083 337.073,13.599L337.073,26.995C337.073,28.016 337.021,32.609 336.969,33.526C336.859,37.682 336.375,38.057 332.438,38.438L332.438,40.547L361.464,40.547C361.464,37.797 361.943,33.255 362.271,30.667L360.432,30.667C359.135,37.469 355.307,37.135 349.802,37.135C344.734,37.135 343.714,35.786 343.714,33.302L343.714,22.646L347.813,22.646C352.505,22.646 353.854,23.052 353.854,27.323L355.688,27.323L355.688,14.74L353.854,14.74C353.474,18.141 352.776,19.25 347.865,19.25L343.714,19.25L343.714,5.823L348.406,5.823C354.875,5.823 357.193,6.313 358.052,11.495L359.781,11.495L359.563,2.427L332.438,2.427ZM451.005,2.427L450.682,13.115L452.682,13.115C453.005,6.313 455.859,6.474 460.172,6.474L464.927,6.474L464.927,34.547C464.927,37.573 463.953,38.875 460.443,38.927L460.443,40.547L476.203,40.547L476.193,38.927C472.687,38.875 471.719,37.573 471.719,34.547L471.719,6.474L476.464,6.474C480.781,6.474 483.641,6.313 483.964,13.115L485.964,13.115L485.635,2.427L451.005,2.427ZM184.589,2.438L184.589,4.484C187.448,4.646 188.635,5.135 188.953,7.516C189.063,8.484 189.063,10.313 189.12,14.417L189.12,23.047C189.12,29.208 189.172,34.932 194.839,38.766C198.396,41.141 202.708,41.453 204.818,41.453C207.458,41.453 217.443,40.922 220.031,30.667C220.677,27.917 220.833,25.047 220.943,22.141C220.995,20.521 221.427,9.943 221.484,9.016C221.698,5.25 222.458,4.432 226.016,4.484L226.016,2.438L211.5,2.438L211.5,4.484C214.901,4.76 216.677,4.865 216.896,8.318C216.948,9.563 216.953,14.094 216.953,15.5C216.953,19.927 216.901,26.615 215.823,30.177C214.526,34.656 211.536,37.49 206.089,37.49C204.417,37.49 201.099,37.125 199.151,34.286C196.708,30.708 196.62,26.724 196.62,22.083L196.62,13.12C196.677,5.026 196.672,4.865 201.74,4.484L201.74,2.438L184.589,2.438ZM228.896,2.438L228.896,4.484C231.432,4.703 232.292,5.083 234.401,7.021C234.349,10.964 234.182,33.578 233.646,36.115C233.214,38.271 232.026,38.328 228.896,38.495L228.896,40.547L244.427,40.547L244.427,38.495C238.604,37.901 238.177,37.688 238.177,31.531L238.177,11.766L253.219,30.344C254.943,32.448 256.672,34.609 258.401,36.771L261.792,41.031L264.063,41.031L264.609,11.615C264.661,5.406 265.036,4.542 269.188,4.484L269.188,2.438L254.193,2.438L254.193,4.484C260.234,4.703 260.396,5.026 260.448,11.078L260.448,28.13L249.823,14.953C244.214,7.995 243.51,6.969 240.328,2.438L228.896,2.438ZM273.292,2.438L273.292,4.484C277.766,5.135 277.766,5.344 277.823,13.286L277.823,33.578C277.766,37.578 277.005,38.005 273.292,38.495L273.292,40.547L289.104,40.547L289.104,38.495C286.141,38.276 285.063,37.734 284.792,35.417C284.682,34.281 284.63,30.016 284.63,28.661L284.63,13.286C284.63,5.135 284.625,4.922 289.104,4.484L289.104,2.438L273.292,2.438ZM292.729,2.438L292.729,4.484C296.557,5.083 296.88,5.948 299.469,13.177L309.88,41.302L311.932,41.302L323.526,13.604C326.656,6.052 327.146,5.026 330.813,4.484L330.813,2.438L317.484,2.438L317.484,4.484C319.854,4.536 322.557,4.646 322.557,7.401C322.557,8.37 321.911,10.099 321.422,11.443L313.661,31.474L307.021,12.099C306,8.911 305.724,7.995 305.724,6.917C305.724,4.703 307.724,4.599 310.797,4.484L310.797,2.438L292.729,2.438ZM431.24,2.438L431.24,4.484C435.719,5.135 435.724,5.344 435.781,13.286L435.781,33.578C435.724,37.578 434.964,38.005 431.24,38.495L431.24,40.547L447.052,40.547L447.052,38.495C444.094,38.276 443.01,37.734 442.745,35.417C442.635,34.281 442.578,30.016 442.578,28.661L442.578,13.286C442.578,5.135 442.578,4.922 447.052,4.484L447.052,2.438L431.24,2.438ZM585.036,2.708L585.036,4.755C587.792,5.026 588.974,5.188 589.349,6.964C589.625,8.156 589.677,12.365 589.677,13.88L589.672,27.271C589.672,28.297 589.615,32.88 589.557,33.797C589.458,37.943 588.969,38.328 585.031,38.708L585.031,40.813L600.807,40.813L600.807,38.708C596.87,38.328 596.385,37.943 596.276,33.797L596.297,22.917L600.51,22.917C604.766,22.917 607.031,23.328 607.302,27.589L609.146,27.589L609.146,15.01L607.302,15.01C607.083,19.115 605.958,19.521 601.318,19.521L596.297,19.521L596.302,6.328C597.656,6.161 598.411,6.109 600.839,6.109C608.286,6.109 610.682,6.073 611.682,12.042L613.573,12.042L612.974,2.708L585.036,2.708ZM563.656,5.401C566.833,5.302 569.25,7.234 570.474,8.547C573.276,11.536 574.646,15.75 574.797,20.667C574.948,25.63 574.396,29.422 571.703,33.563C569.349,37.135 566.313,38.208 564.161,38.271C562.01,38.271 558.948,37.302 556.49,33.797C553.672,29.745 553.005,25.974 553.005,21C553.005,16.089 554.24,11.818 556.948,8.745C558.135,7.401 560.484,5.401 563.656,5.401ZM379.531,5.797C386.542,5.797 388.766,9.62 388.536,14.052C388.375,17.099 385.099,20.505 380.766,20.49C379.688,20.49 378.229,20.318 377.208,20.109L377.208,6.016C377.964,5.854 378.557,5.797 379.531,5.797ZM529.87,56.469C527.016,58.599 525.135,59.578 518.448,61.776L519.344,63.167L503.76,105.953C501.557,111.99 499.599,113.224 493.557,113.469L493.557,116.573L517.307,116.573L517.307,113.469C513.802,113.307 509.474,113.063 509.474,108.974C509.474,107.76 509.797,106.609 510.208,105.38L511.99,100.396L532.307,100.396L534.036,106.281C534.359,107.344 534.688,108.573 534.688,109.714C534.688,112.896 531.667,113.224 527.755,113.469L527.755,116.573L576.495,116.573L576.495,113.469C567.677,112.568 567.026,112.24 567.026,102.938L567.026,73.031L589.792,101.135C592.406,104.323 595.01,107.583 597.62,110.849L602.766,117.307L606.198,117.307L607.01,72.807C607.089,63.422 607.661,62.104 613.948,62.031L613.948,58.922L591.26,58.922L591.26,62.031C600.401,62.359 600.646,62.844 600.729,71.984L600.729,97.786L584.651,77.859C576.167,67.328 575.104,65.781 570.292,58.922L552.995,58.922L552.995,62.031C556.828,62.359 558.13,62.927 561.313,65.865C561.229,71.823 560.984,106.031 560.172,109.88C559.583,112.833 557.938,113.167 554.151,113.391C548.531,112.677 547.427,110.88 545.214,104.156L532.49,64.958C531.182,60.88 531.016,60.391 529.87,56.469ZM467.406,57.448C451.76,57.448 439.276,69.448 439.276,87.901C439.276,103 448.75,118.036 468.578,118.036C479.885,118.036 486.276,114.026 490.755,111.255L490.755,106.927C490.906,95.984 490.906,94.516 496.12,94.188L496.12,91.089L472.911,91.089L472.911,94.188C479.302,94.849 480.292,95.005 480.552,102.349C480.641,104.885 480.406,106.271 479.38,107.823C479.083,108.151 475.776,112.641 469.385,112.641C458.151,112.641 451.62,101.297 451.62,88.068C451.62,71.49 459.99,63 470.052,63C475.849,63 479.526,65.406 481.437,67.281C485.766,71.615 487.536,75.573 488.703,79L491.057,78.594L490.615,60.542L487.609,63.974C482.911,61.12 477.25,57.448 467.406,57.448ZM319.568,57.531C300.109,57.531 290.578,72.891 290.578,88.479C290.578,105.302 301.823,118.12 319.182,118.12C335.078,118.12 341.198,107.911 343.755,103.75L340.328,101.151C337.307,105.474 333.526,111.104 323.448,111.104C310.109,111.104 303.365,99.182 303.365,86.521C303.365,71.573 311.589,63.094 321.974,63.094C328.021,63.094 332.281,66.844 334.068,68.724C337.786,72.807 339.26,75.495 340.266,78.849L342.823,78.349L342.516,60.875L338.557,64.474C335.229,61.87 329.797,57.531 319.568,57.531ZM186.865,58.922L186.865,62.031C192,62.104 193.146,62.521 193.146,68.229C193.146,70.271 193.146,73.047 193.063,74.927L192.25,99.094C192.167,102.276 191.922,107.099 191.76,108.646C191.432,112.568 189.635,113.224 184.979,113.469L184.979,116.573L204.979,116.573L204.979,113.469C198.859,112.979 198.203,111.917 198.203,106.281L198.635,72.38L217.135,117.307L222.198,117.307L242.349,72.964L242.349,101.958C242.266,112.656 242.266,112.979 235.005,113.469L235.005,116.573L260.214,116.573L260.214,113.469C255.646,113.063 254.016,112.245 253.693,107.995C253.443,105.057 253.365,100.161 253.365,96.24L253.365,72.479C253.281,63.495 253.359,62.76 260.214,62.354L260.214,58.922L242.677,58.922L222.932,102.688L204.974,58.922L186.859,58.922L186.865,58.922ZM265.865,58.922L265.865,62.031C272.635,63.01 272.635,63.333 272.714,75.333L272.714,106.031C272.63,112.078 271.495,112.734 265.865,113.469L265.865,116.573L289.781,116.573L289.781,113.469C285.297,113.141 283.661,112.318 283.25,108.813C283.089,107.099 283.01,100.646 283.01,98.599L283.01,75.333C283.01,63.005 283.01,62.682 289.781,62.031L289.781,58.922L265.865,58.922ZM348.01,58.922L348.01,62.031C352.5,62.432 354.125,62.927 354.453,66.349C354.698,68.151 354.703,71.906 354.703,75.661L354.703,99.833C354.703,101.87 354.703,103.911 354.62,105.953C354.62,111.5 354.536,112.896 348.01,113.469L348.01,116.573L372.672,116.573L372.672,113.469C365.245,112.656 365.083,112.656 365,100.646L365,90.078C369.979,89.828 373.859,89.672 378.833,89.672C383.568,89.672 387.365,89.911 391.932,90.078L391.932,100.646C391.932,104.818 391.932,107.021 391.771,108.646C391.276,112.656 389.729,112.807 383.938,113.469L383.938,116.573L408.917,116.573L408.917,113.469C404.672,113.057 402.958,112.49 402.547,109.458C402.302,107.755 402.219,100.484 402.219,98.198L402.219,73.865C402.219,62.927 402.219,62.844 408.917,62.031L408.917,58.922L383.932,58.922L383.932,62.031C391.771,62.76 391.849,63.167 391.932,73.698L391.932,83.385C387.036,83.625 383.156,83.792 378.26,83.792C373.453,83.792 369.979,83.625 365,83.385L365,75.417C365,71.984 365.083,67.74 365.49,65.865C366.063,62.682 367.854,62.521 372.672,62.031L372.672,58.922L348.01,58.922ZM413.682,58.922L413.682,62.031C420.464,63.01 420.464,63.333 420.547,75.333L420.547,106.031C420.464,112.078 419.318,112.734 413.682,113.469L413.682,116.573L437.63,116.573L437.63,113.469C433.146,113.141 431.521,112.318 431.109,108.813C430.943,107.099 430.854,100.646 430.854,98.599L430.854,75.333C430.854,63.005 430.859,62.682 437.63,62.031L437.63,58.922L413.682,58.922ZM522.594,70.297L530.677,94.193L514.125,94.193L522.589,70.297L522.594,70.297Z" style="fill:rgb(106,111,114);fill-rule:nonzero;"/>
</svg>
