<?xml version="1.0" encoding="UTF-8" standalone="no"?>
<!DOCTYPE svg PUBLIC "-//W3C//DTD SVG 1.1//EN" "http://www.w3.org/Graphics/SVG/1.1/DTD/svg11.dtd">
<svg width="582px" height="140px" version="1.1" xmlns="http://www.w3.org/2000/svg" xmlns:xlink="http://www.w3.org/1999/xlink" xml:space="preserve" xmlns:serif="http://www.serif.com/" style="fill-rule:evenodd;clip-rule:evenodd;stroke-linejoin:round;stroke-miterlimit:2;">
    <rect x="229.062" y="49.755" width="18.417" height="57.974" style="fill:rgb(106,111,114);fill-rule:nonzero;"/>
    <path d="M251.323,49.755L269.062,49.755L269.062,57.682L269.401,57.682C273.693,51.453 279.229,48.057 287.25,48.057C299.901,48.057 307.354,57.115 307.354,70.026L307.354,107.729L288.943,107.729L288.943,73.76C288.943,67.646 285.891,63.458 279.906,63.458C273.807,63.458 269.74,68.552 269.74,75.687L269.74,107.729L251.323,107.729L251.323,49.755Z" style="fill:rgb(106,111,114);fill-rule:nonzero;"/>
    <path d="M249.318,34.245C249.318,28.13 244.37,23.177 238.271,23.177C232.172,23.177 227.224,28.13 227.224,34.245C227.224,40.359 232.172,45.318 238.271,45.318C244.37,45.318 249.318,40.359 249.318,34.245" style="fill:rgb(106,111,114);fill-rule:nonzero;"/>
    <path d="M436.865,48.917C436.339,48.87 435.734,48.849 435.031,48.849C428.026,48.849 423.281,51.906 419.214,58.812L418.875,58.812L418.875,49.755L401.255,49.755L401.255,107.729L419.667,107.729L419.667,81.687C419.667,69.62 426.333,64.026 436.865,65.005L436.865,48.917Z" style="fill:rgb(106,111,114);fill-rule:nonzero;"/>
    <path d="M527.229,71.156C519.885,69.797 513.333,69.229 513.333,65.156C513.333,61.531 516.839,59.833 521.354,59.833C526.437,59.833 529.943,61.417 530.62,66.625L547.562,66.625C546.661,55.193 537.849,48.057 521.469,48.057C507.797,48.057 496.5,54.401 496.5,66.625C496.5,80.214 507.234,82.932 517.286,84.63C524.969,85.99 531.974,86.557 531.974,91.766C531.974,95.5 528.474,97.536 522.937,97.536C517.385,97.536 513.708,95.182 512.583,90.406L495.036,90.406C496.328,102.323 506.766,109.542 523.047,109.542C538.187,109.542 549.37,102.974 549.37,90.292C549.37,75.458 537.396,72.854 527.229,71.156" style="fill:rgb(106,111,114);fill-rule:nonzero;"/>
    <path d="M465.432,61.193C471.417,61.193 475.708,65.609 476.385,72.516L453.568,72.516C454.812,65.609 458.427,61.193 465.432,61.193M466.448,96.177C458.875,96.177 454.583,91.312 453.453,83.5L495.026,83.5C495.141,71.724 491.75,61.646 484.859,55.302C479.891,50.776 473.339,48.057 465.089,48.057C447.469,48.057 435.38,61.307 435.38,78.63C435.38,96.177 447.13,109.427 466.219,109.427C473.562,109.427 479.437,107.5 484.297,104.104C489.38,100.594 492.766,95.615 494.01,90.406L476.047,90.406C474.469,94.026 471.302,96.177 466.448,96.177" style="fill:rgb(106,111,114);fill-rule:nonzero;"/>
    <path d="M581.802,94.057C580.948,94.094 579.802,94.141 578.75,94.141C574.797,94.141 572.312,93.01 572.312,88.479L572.312,61.307L581.802,61.307L581.802,49.755L572.312,49.755L572.312,31.411L554.349,31.411L554.349,49.755L548.698,49.755L548.698,61.307L554.349,61.307L554.349,92.443C554.349,104.901 562.031,108.406 572.766,108.406C576.859,108.406 579.953,108.099 581.802,107.74L581.802,94.057Z" style="fill:rgb(106,111,114);fill-rule:nonzero;"/>
    <path d="M340.24,94.083C339.505,94.115 338.656,94.141 337.865,94.141C333.911,94.141 331.427,93.01 331.427,88.479L331.427,61.307L340.24,61.307L340.24,49.755L331.427,49.755L331.427,31.411L313.464,31.411L313.464,49.755L307.474,49.755L307.474,61.307L313.464,61.307L313.464,92.443C313.464,104.896 321.146,108.406 331.88,108.406C335.51,108.406 338.354,108.167 340.24,107.859L340.24,94.083Z" style="fill:rgb(106,111,114);fill-rule:nonzero;"/>
    <path d="M380.349,72.516C379.672,65.609 375.38,61.193 369.391,61.193C362.385,61.193 358.771,65.609 357.531,72.516L380.349,72.516ZM339.344,78.63C339.344,61.307 351.427,48.057 369.052,48.057C377.297,48.057 383.849,50.776 388.823,55.302C395.714,61.646 399.104,71.724 398.99,83.5L357.417,83.5C358.547,91.312 362.839,96.177 370.406,96.177C375.266,96.177 378.427,94.026 380.01,90.406L397.974,90.406C396.729,95.615 393.339,100.594 388.255,104.104C383.401,107.5 377.526,109.427 370.182,109.427C351.089,109.427 339.344,96.177 339.344,78.63" style="fill:rgb(106,111,114);fill-rule:nonzero;"/>
    <path d="M197.083,64.818C204.318,64.818 208.38,60.516 208.38,54.057C208.38,47.604 204.203,43.641 197.083,43.641L182.964,43.641L182.964,64.818L197.083,64.818ZM164.323,26.771L196.297,26.771C206.125,26.771 213.354,29.49 218.328,34.245C223.526,39.115 226.458,46.021 226.458,54.172C226.458,69.682 215.729,80.667 199.12,80.667L182.964,80.667L182.964,107.729L164.323,107.729L164.323,26.771Z" style="fill:rgb(106,111,114);fill-rule:nonzero;"/>
    <path d="M139.042,69.682C139.042,108.167 107.917,139.365 69.521,139.365C31.125,139.365 0,108.167 0,69.682C0,31.198 31.125,0 69.521,0C107.917,0 139.042,31.198 139.042,69.682" style="fill:white;fill-rule:nonzero;"/>
    <path d="M69.521,0C31.125,0 0,31.198 0,69.682C0,99.203 18.323,124.443 44.187,134.594C43.578,129.078 43.026,120.599 44.427,114.583C45.687,109.146 52.578,79.948 52.578,79.948C52.578,79.948 50.5,75.771 50.5,69.599C50.5,59.911 56.104,52.677 63.078,52.677C69.01,52.677 71.875,57.141 71.875,62.495C71.875,68.474 68.078,77.411 66.12,85.693C64.479,92.63 69.589,98.286 76.411,98.286C88.771,98.286 98.266,85.229 98.266,66.375C98.266,49.693 86.307,38.026 69.229,38.026C49.448,38.026 37.833,52.901 37.833,68.266C37.833,74.255 40.135,80.677 43.01,84.172C43.578,84.859 43.661,85.464 43.49,86.167C42.964,88.37 41.792,93.104 41.562,94.073C41.255,95.349 40.552,95.615 39.234,95C30.552,90.953 25.125,78.229 25.125,68.01C25.125,46.026 41.057,25.839 71.057,25.839C95.177,25.839 113.917,43.068 113.917,66.083C113.917,90.099 98.812,109.427 77.844,109.427C70.797,109.427 64.177,105.76 61.906,101.427C61.906,101.427 58.422,114.729 57.578,117.99C56.005,124.042 51.771,131.63 48.937,136.255C55.443,138.276 62.354,139.365 69.521,139.365C107.917,139.365 139.042,108.167 139.042,69.682C139.042,31.198 107.917,0 69.521,0" style="fill:rgb(106,111,114);fill-rule:nonzero;"/>
</svg>
