<?xml version="1.0" encoding="UTF-8" standalone="no"?>
<!DOCTYPE svg PUBLIC "-//W3C//DTD SVG 1.1//EN" "http://www.w3.org/Graphics/SVG/1.1/DTD/svg11.dtd">
<svg width="535px" height="79px" version="1.1" xmlns="http://www.w3.org/2000/svg" xmlns:xlink="http://www.w3.org/1999/xlink" xml:space="preserve" xmlns:serif="http://www.serif.com/" style="fill-rule:evenodd;clip-rule:evenodd;stroke-linejoin:round;stroke-miterlimit:2;">
    <path d="M293.116,36.344C293.116,36.344 287.918,33.131 284.699,31.886C284.699,31.886 274.746,27.271 272.772,25.073C272.772,25.073 268.892,21.422 271.162,17.172C271.162,17.172 272.116,14.396 276.215,14.396C276.215,14.396 281.553,14.688 281.553,19.073L281.553,25.261L300.678,25.261L300.647,16.151C300.647,16.151 302.116,1.224 278.116,0.568C278.116,0.568 259.241,-0.671 253.824,9.495C253.824,9.495 251.699,11.761 251.699,19.662L251.699,25.37C251.699,25.37 251.485,31.954 254.845,36.198C254.845,36.198 256.746,38.98 261.428,42.047C261.428,42.047 270.938,47.167 276.647,50.099C276.647,50.099 282.407,53.391 281.652,58.625C281.652,58.625 281.183,64 275.616,63.776C275.616,63.776 270.532,63.553 270.532,58.282L270.532,52.094L250.147,52.094L250.147,61.079C250.147,61.079 249.579,78.261 275.767,78.261C275.767,78.261 300.793,78.766 301.959,60.631L301.959,53.313C301.959,53.313 302.845,42.198 293.116,36.344ZM195.188,2.704L188.787,42.844L187.287,42.844L181.173,3.068L149.22,3.068L147.621,75.75L166.537,75.75L166.761,20.985L168.251,20.985L178.277,75.74L198.178,75.74L208.084,21.006L209.402,21.006L209.86,75.75L228.876,75.75L226.829,2.704L195.188,2.704ZM82.579,3.011L69.996,75.667L90.36,75.667L97.813,19.334L99.491,19.334L106.944,75.667L127.303,75.667L114.72,3.011L82.579,3.011ZM509.907,35.344L509.907,46.063L515.131,46.063L515.131,57.568C515.131,63.193 510.324,63.292 510.324,63.292C504.48,63.292 504.699,57.948 504.699,57.948L504.699,18.151C504.699,14.053 509.886,13.834 509.886,13.834C514.86,13.834 514.897,18.724 514.897,18.724L514.897,24.776L534.069,24.776C534.699,12.964 532.345,10.105 532.345,10.105C527.584,-0.578 509.595,0.006 509.595,0.006C481.944,0.006 485.011,21.224 485.011,21.224L485.011,59.704C485.605,79.599 512.85,77.579 513.313,77.563C525.433,76.219 529.09,72.37 529.09,72.37C532.459,69.865 533.329,66.401 533.329,66.401C534.293,64.381 534.532,57.948 534.532,57.948L534.532,35.344L509.907,35.344ZM446.35,47.167L445.517,47.167L426.058,2.724L402.777,2.724L402.777,75.756L421.725,75.756L420.59,31.318L421.438,31.318L441.595,75.756L464.168,75.756L464.168,2.719L444.98,2.719L446.35,47.167ZM356.527,57.558C356.527,57.558 356.798,63.553 351.241,63.553C351.241,63.553 345.397,63.87 345.397,57.709L345.334,2.771L324.553,2.771L324.553,57.271C324.553,57.271 322.423,77.901 351.532,77.901C351.532,77.901 376.834,78.204 376.834,58.219L376.834,2.771L356.527,2.771L356.527,57.558ZM42.959,36.344C42.959,36.344 37.767,33.131 34.548,31.886C34.548,31.886 24.6,27.276 22.626,25.079C22.626,25.079 18.746,21.417 21.022,17.178C21.022,17.178 21.97,14.401 26.063,14.401C26.063,14.401 31.407,14.693 31.407,19.079L31.407,25.266L50.537,25.266L50.501,16.151C50.501,16.151 51.965,1.224 27.975,0.573C27.975,0.573 26.162,0.454 23.511,0.589C23.511,0.589 8.98,1.37 3.782,9.339C3.751,9.401 3.709,9.443 3.678,9.495C3.678,9.495 1.558,11.761 1.558,19.667L1.558,25.37C1.558,25.37 1.334,31.959 4.704,36.198C4.704,36.198 6.605,38.985 11.287,42.053C11.287,42.053 20.793,47.172 26.501,50.105C26.501,50.105 32.272,53.386 31.506,58.625C31.506,58.625 31.037,64 25.475,63.782C25.475,63.782 20.386,63.553 20.386,58.282L20.386,52.094L0.001,52.094L0.001,61.084C0.001,61.084 -0.567,78.266 25.621,78.266C25.621,78.266 50.642,78.771 51.819,60.636L51.819,53.329C51.819,53.318 52.694,42.198 42.959,36.344Z" style="fill:rgb(106,111,114);"/>
</svg>
