<?xml version="1.0" encoding="UTF-8" standalone="no"?>
<!DOCTYPE svg PUBLIC "-//W3C//DTD SVG 1.1//EN" "http://www.w3.org/Graphics/SVG/1.1/DTD/svg11.dtd">
<svg width="551px" height="155px" version="1.1" xmlns="http://www.w3.org/2000/svg" xmlns:xlink="http://www.w3.org/1999/xlink" xml:space="preserve" xmlns:serif="http://www.serif.com/" style="fill-rule:evenodd;clip-rule:evenodd;stroke-linejoin:round;stroke-miterlimit:2;">
    <path d="M94.073,3.401L94.073,43.271C94.073,58.021 92.62,77.036 81.25,93.729C78.88,97.135 76.24,100.323 73.063,103.401L73.005,103.453C66.813,109.396 58.677,115.016 47.036,121.5C35.401,115.016 27.208,109.396 21.068,103.453L21.01,103.401C17.833,100.323 15.141,97.187 12.823,93.729C1.453,77.089 0,58.021 0,43.271L0,3.401L1.885,3.188C2.156,3.13 27.37,0 47.036,0C66.703,0 91.917,3.13 92.188,3.188L94.073,3.401Z" style="fill:rgb(106,111,114);fill-rule:nonzero;"/>
    <path d="M47.036,4.375C32.38,4.375 14.547,6.156 6.625,7.021L4.365,38.406L89.708,38.406L87.5,7.021C79.526,6.156 61.693,4.375 47.036,4.375ZM47.036,41.057L4.307,43.432C4.307,57.536 5.708,75.687 16.38,91.302C18.589,94.49 21.12,97.51 24.135,100.427C33.51,109.073 44.073,113.828 47.036,115.073C50,113.828 60.563,109.073 69.938,100.427C72.953,97.51 75.484,94.542 77.693,91.302C88.307,75.687 89.708,57.536 89.708,43.432L47.036,41.057Z" style="fill:white;fill-rule:nonzero;"/>
    <path d="M41.917,9.938C39.708,9.938 37.339,10.318 34.859,10.641C32.109,11.073 29.255,11.448 26.401,11.448L25.052,11.448L25.052,17.016L23.063,17.016L23.063,20.255L25.052,20.255L25.052,24.688L23.063,24.688L23.063,27.927L25.052,27.927L25.052,33.979L26.401,33.979C29.474,33.979 32.484,33.495 35.344,33.063C37.823,32.682 40.141,32.302 42.078,32.302C43.693,32.302 44.88,32.521 45.797,33.01L48.385,33.01C49.302,32.521 50.484,32.302 52.104,32.302C54.094,32.302 56.411,32.682 58.833,33.063C61.745,33.495 64.76,33.979 67.781,33.979L69.125,33.979L69.125,27.927L71.12,27.927L71.12,24.688L69.125,24.688L69.125,20.255L71.12,20.255L71.12,17.068L69.125,17.068L69.125,11.448L67.781,11.448C64.922,11.448 62.068,11.021 59.318,10.641C56.786,10.266 54.417,9.938 52.26,9.938C50.214,9.938 48.49,10.26 47.089,10.911C45.688,10.26 43.964,9.938 41.917,9.938ZM47.036,43.271C46.984,43.271 46.927,43.328 46.927,43.38L42.24,57.802L27.156,57.802C27.104,57.802 27.047,57.807 26.995,57.859C26.995,57.969 26.995,58.021 27.104,58.021L39.328,66.937L34.641,81.464C34.641,81.464 34.641,81.521 34.698,81.521L34.75,81.521L47.089,72.552L59.427,81.521L59.479,81.521C59.536,81.464 59.536,81.411 59.479,81.411L54.792,66.937L67.026,58.021C67.078,58.021 67.135,57.969 67.078,57.859C67.078,57.807 67.026,57.802 66.974,57.802L51.833,57.802L47.146,43.38C47.146,43.328 47.094,43.271 47.036,43.271ZM19.182,46.193L18.318,46.943C16.219,48.51 14.76,50.781 14.276,53.375C14.005,54.672 14.005,55.969 14.276,57.208C13.255,56.396 12.068,55.802 10.828,55.37L9.698,55.047L9.427,56.182C8.833,58.771 9.266,61.422 10.557,63.687C11.854,65.958 14.01,67.635 16.484,68.391L17.458,68.661C17.563,69.474 17.781,70.281 18.052,71.089C16.651,70.172 15.031,69.63 13.359,69.526L12.229,69.417L12.229,70.604C12.177,73.255 13.146,75.74 14.87,77.682C16.646,79.63 19.021,80.818 21.661,81.031L22.682,81.141C22.953,81.948 23.333,82.708 23.76,83.359C22.63,82.927 21.391,82.708 20.151,82.708C19.719,82.708 19.292,82.708 18.859,82.76L17.724,82.922L17.943,84.057C18.427,86.651 19.88,88.922 22.036,90.49C23.818,91.786 25.865,92.432 28.073,92.432C28.505,92.432 28.938,92.432 29.365,92.38L30.385,92.271C30.818,92.974 31.302,93.62 31.896,94.214C30.276,93.943 28.557,94.104 26.995,94.646L25.917,95.026L26.349,96.104C27.375,98.536 29.255,100.484 31.625,101.51C32.974,102.104 34.375,102.427 35.776,102.427C36.906,102.427 38.094,102.208 39.172,101.833L39.979,101.562C41.323,102.698 42.833,103.833 44.938,105.292C43.969,105.943 42.943,106.589 41.755,107.396L43.807,108.641C44.938,107.885 45.958,107.234 46.875,106.583C47.792,107.177 48.818,107.885 49.948,108.641L51.995,107.396C50.813,106.641 49.786,105.943 48.818,105.292C50.917,103.833 52.427,102.698 53.776,101.562L54.578,101.833C55.656,102.208 56.844,102.427 57.974,102.427C59.427,102.427 60.828,102.104 62.125,101.51C64.495,100.427 66.38,98.536 67.406,96.104L67.833,95.026L66.755,94.646C65.193,94.104 63.469,93.943 61.854,94.214C62.448,93.62 62.932,92.974 63.365,92.271L64.385,92.38C64.818,92.432 65.25,92.432 65.682,92.432C67.891,92.432 69.938,91.786 71.714,90.49C73.818,88.922 75.271,86.651 75.813,84.057L76.026,82.922L74.896,82.76C74.464,82.708 74.031,82.708 73.604,82.708C72.365,82.708 71.177,82.927 69.99,83.359C70.422,82.656 70.802,81.896 71.068,81.141L72.094,81.031C74.734,80.818 77.104,79.63 78.885,77.682C80.661,75.74 81.573,73.198 81.521,70.604L81.521,69.417L80.333,69.526C78.661,69.63 77.052,70.224 75.651,71.089C75.974,70.333 76.135,69.474 76.245,68.661L77.427,68.391C79.958,67.635 82.057,65.958 83.349,63.687C84.646,61.422 85.073,58.771 84.484,56.182L84.214,55.047L83.083,55.37C81.786,55.75 80.661,56.396 79.635,57.208C79.854,55.964 79.854,54.672 79.635,53.375C79.151,50.781 77.698,48.51 75.594,46.943L74.677,46.245L74.089,47.214C72.688,49.427 72.203,52.073 72.688,54.667C73.172,57.26 74.625,59.479 76.729,61.047C76.349,61.911 76.078,62.885 75.917,63.802C75.271,62.073 74.25,60.562 72.792,59.37L71.87,58.609L71.172,59.583C69.661,61.745 68.964,64.339 69.339,66.932C69.661,69.526 71.01,71.901 73.005,73.573L73.057,73.63C72.464,74.437 71.979,75.307 71.656,76.276C71.391,74.495 70.688,72.766 69.5,71.255L68.802,70.333L67.938,71.141C66,72.927 64.813,75.359 64.599,77.953C64.38,80.547 65.193,83.141 66.807,85.193L66.859,85.245C66.109,85.896 65.458,86.708 64.922,87.516C65.031,85.677 64.703,83.839 63.844,82.167L63.302,81.141L62.281,81.734C60.016,83.083 58.344,85.193 57.594,87.729C56.839,90.271 57.109,92.917 58.292,95.297L58.292,95.349C57.432,95.833 56.62,96.479 55.974,97.182C56.458,95.401 56.516,93.562 56.031,91.724L55.76,90.594L54.682,90.974C52.203,91.839 50.161,93.562 48.865,95.885C47.682,98.104 47.359,100.698 47.948,103.182C47.625,103.396 47.25,103.672 46.927,103.885C46.547,103.615 46.224,103.396 45.901,103.182C46.495,100.698 46.172,98.104 44.984,95.885C43.745,93.562 41.698,91.839 39.167,90.974L38.089,90.594L37.818,91.724C37.333,93.51 37.391,95.401 37.875,97.182C37.172,96.484 36.417,95.833 35.5,95.349L35.557,95.297C36.74,92.917 36.958,90.271 36.255,87.729C35.5,85.193 33.833,83.083 31.568,81.734L30.542,81.141L30.005,82.167C29.141,83.839 28.823,85.677 28.932,87.516C28.396,86.651 27.745,85.896 26.99,85.245L27.047,85.193C28.661,83.141 29.469,80.547 29.255,77.896C29.042,75.25 27.854,72.87 25.917,71.089L25.052,70.281L24.349,71.203C23.167,72.661 22.464,74.385 22.198,76.224C21.87,75.307 21.385,74.385 20.792,73.578L20.844,73.521C22.891,71.849 24.188,69.474 24.51,66.88C24.833,64.286 24.188,61.641 22.677,59.531L21.974,58.557L21.057,59.318C19.604,60.505 18.526,62.016 17.932,63.745C17.828,62.776 17.557,61.854 17.125,60.99C19.229,59.422 20.682,57.151 21.167,54.615C21.651,52.021 21.167,49.37 19.766,47.156L19.172,46.188L19.182,46.193Z" style="fill:rgb(106,111,114);fill-rule:nonzero;"/>
    <path d="M41.865,12.583C39.87,12.583 37.604,12.906 35.182,13.286C33.026,13.609 30.875,13.88 28.609,14.047L28.021,31.172C30.281,31.063 32.594,30.74 34.859,30.359C37.391,29.984 39.818,29.599 42.026,29.599C43.208,29.599 44.234,29.714 45.151,29.927L45.635,15.609L45.635,13.234C44.667,12.802 43.427,12.589 41.865,12.589L41.865,12.583ZM52.208,12.583C50.646,12.583 49.464,12.802 48.438,13.234L48.438,15.609L48.922,29.927C49.839,29.714 50.865,29.599 52.047,29.599C54.255,29.599 56.677,29.979 59.214,30.359C61.474,30.74 63.792,31.063 66.057,31.172L65.464,14.042C63.198,13.88 60.99,13.609 58.891,13.286C56.464,12.906 54.203,12.583 52.208,12.583ZM18.641,49.484C17.458,50.672 16.703,52.13 16.38,53.755C16.109,55.375 16.271,57.047 16.917,58.505C18.104,57.318 18.854,55.859 19.182,54.24C19.448,52.615 19.286,50.995 18.641,49.484ZM75.271,49.484C74.625,50.995 74.411,52.672 74.734,54.292C75.057,55.911 75.865,57.37 76.995,58.562C77.641,57.047 77.859,55.375 77.536,53.755C77.214,52.13 76.401,50.62 75.271,49.484ZM47.036,53.484L44.234,60.505L36.635,61.047L42.51,65.906L40.625,73.255L47.036,69.203L53.453,73.255L51.563,65.906L57.38,61.047L49.839,60.557L47.036,53.484ZM11.365,57.911C11.26,59.536 11.635,61.208 12.443,62.615C13.25,64.016 14.495,65.151 15.948,65.854C16.109,64.234 15.729,62.615 14.87,61.156C14.063,59.75 12.823,58.615 11.365,57.911ZM82.594,57.911C81.089,58.615 79.906,59.75 79.099,61.156C78.286,62.615 77.911,64.234 78.021,65.854C79.474,65.151 80.708,64.016 81.516,62.615C82.323,61.156 82.703,59.536 82.594,57.911ZM21.661,61.964C20.583,63.203 19.88,64.719 19.667,66.339C19.448,67.958 19.719,69.63 20.474,71.094C21.552,69.849 22.255,68.339 22.469,66.719C22.682,65.047 22.411,63.422 21.661,61.964ZM72.307,61.964C71.552,63.422 71.286,65.099 71.5,66.719C71.714,68.339 72.417,69.849 73.495,71.094C74.25,69.63 74.516,67.958 74.302,66.339C74.089,64.719 73.385,63.203 72.307,61.964ZM14.495,71.849C14.76,73.469 15.464,74.984 16.542,76.224C17.62,77.469 19.073,78.333 20.635,78.661C20.365,77.036 19.667,75.474 18.589,74.281C17.51,73.094 16.057,72.229 14.495,71.849ZM79.422,71.849C77.859,72.229 76.458,73.042 75.328,74.281C74.193,75.526 73.495,77.036 73.276,78.661C74.839,78.281 76.297,77.469 77.375,76.224C78.505,75.036 79.208,73.526 79.422,71.849ZM68.536,73.687C67.51,74.984 66.865,76.495 66.755,78.172C66.651,79.844 67.026,81.464 67.781,82.87C68.807,81.573 69.453,80.005 69.557,78.385C69.719,76.708 69.344,75.089 68.536,73.687ZM25.38,73.74C24.573,75.146 24.245,76.766 24.302,78.437C24.464,80.115 25.057,81.625 26.078,82.922C26.885,81.516 27.266,79.896 27.156,78.224C26.995,76.547 26.401,75.036 25.38,73.74ZM31.464,84.437C30.979,86 30.927,87.682 31.411,89.245C31.896,90.812 32.813,92.214 34.052,93.24C34.536,91.677 34.589,90 34.104,88.432C33.62,86.87 32.703,85.464 31.464,84.437ZM62.448,84.437C61.208,85.464 60.292,86.87 59.807,88.432C59.323,90 59.375,91.677 59.859,93.24C61.099,92.214 62.016,90.812 62.5,89.245C62.984,87.682 62.932,86 62.448,84.437ZM20.422,84.927C21.016,86.437 21.984,87.786 23.333,88.76C24.677,89.729 26.24,90.219 27.802,90.323C27.266,88.755 26.297,87.464 24.948,86.49C23.599,85.521 22.036,84.979 20.422,84.927ZM73.443,84.927C71.823,84.979 70.26,85.521 68.917,86.49C67.62,87.464 66.599,88.755 66.057,90.323C67.672,90.271 69.24,89.729 70.583,88.76C71.932,87.786 72.901,86.437 73.443,84.927ZM54.26,93.625C52.859,94.38 51.677,95.568 50.865,97.026C50.057,98.484 49.734,100.104 49.948,101.724C51.406,100.969 52.589,99.781 53.344,98.323C54.099,96.865 54.422,95.245 54.26,93.625ZM39.656,93.677C39.495,95.297 39.818,96.917 40.573,98.323C41.328,99.781 42.516,100.969 43.969,101.724C44.13,100.104 43.807,98.484 43.052,97.026C42.297,95.62 41.109,94.432 39.656,93.677ZM30.203,96.255C29.797,96.271 29.396,96.312 28.99,96.38C29.854,97.786 31.089,98.917 32.599,99.568C34.052,100.214 35.724,100.427 37.339,100.156C36.479,98.755 35.24,97.62 33.729,96.974C32.599,96.443 31.411,96.224 30.203,96.255ZM63.76,96.266C62.542,96.245 61.328,96.484 60.24,96.974C58.729,97.672 57.49,98.755 56.63,100.156C57.115,100.214 57.599,100.266 58.083,100.266C59.214,100.266 60.349,100.052 61.37,99.568C62.88,98.865 64.12,97.786 64.979,96.38C64.578,96.312 64.167,96.276 63.76,96.266Z" style="fill:white;fill-rule:nonzero;"/>
    <path d="M519.234,4.859C499.891,8.911 485.937,17.828 485.937,33.063C485.937,45.49 494.182,51.911 504.203,56.234L521.068,63.635C529.417,67.255 535.557,72.714 535.557,82.224C535.557,92.432 528.609,99.943 516.646,99.943C508.833,99.943 501.187,96.323 497.036,91.135L492.187,79.25L482.437,79.25L485.505,98.104C492.885,103.937 501.505,107.609 514.333,107.609C540.516,102.156 549.411,89.458 549.411,76.333C549.411,62.068 539.818,55.099 528.828,50.344L512.823,43.38C505.172,40.026 499.729,35.271 499.729,27.599C499.729,18.255 506.25,12.26 517.292,12.26C525.646,12.26 530.115,15.339 533.724,19.12L537.766,31.818L544.719,31.818L544.719,12.958C537.771,7.776 528.021,4.859 519.234,4.859ZM434.427,5.995L426.078,8.37L391.536,98.859L384.854,99.781L378.177,98.755L347.25,53.104L375.807,13.724L386.688,12.208L385.99,7.344L369.719,7.781L353.448,7.344L352.745,12.208L364.87,14.047L342.776,46.62L323.109,13.938L334.964,12.104L334.26,7.234L314.49,7.781L294.552,7.234L293.854,12.104L304.74,13.615L333.563,57.318L303.5,98.807L292.615,100.323L293.318,105.349L308.885,104.911L325.161,105.349L325.859,100.323L314.438,98.646L338.198,63.859L359.854,98.536L348.005,100.375L348.703,105.401L368.641,104.969L384.911,105.292L396.333,104.969L413.036,105.401L413.734,100.536L401.615,98.698L410.661,72.604L445.042,72.604L454.526,98.698L442.672,100.536L443.37,105.401L461.745,104.969L480.984,105.401L481.682,100.536L470.797,99.026L434.427,5.995ZM119.609,7.234L119.609,31.927L125.057,31.927L131.464,14.208L152.318,13.938L152.318,98.536L135.615,100.375L136.313,105.234L159.698,104.802L182.271,105.234L182.974,100.375L166.974,98.536L166.974,13.938L187.823,14.208L194.234,31.927L199.677,31.927L199.677,7.234L159.589,7.672L119.609,7.234ZM208.026,7.234L207.328,12.099L219.885,13.938L219.885,98.536L207.328,100.375L208.026,105.234L227.266,104.802L282.542,105.234L287.396,79.411L282.115,79.411L272.792,98.266L234.484,98.698L234.484,56.776L253.99,57.37L259.536,72.01L264.443,72.01L263.042,53.156L264.443,35.708L259.536,35.708L253.99,50.344L234.484,50.943L234.484,13.776L271.391,14.208L279.208,32.359L283.943,32.359L282.542,7.234L227.266,7.672L208.026,7.234ZM41.651,15.146C40.125,15.13 38.5,15.313 36.844,15.557L36.844,17.771C39.156,17.443 41.26,17.229 43.094,17.391L43.146,15.234C42.661,15.177 42.161,15.151 41.651,15.146ZM53.495,15.198C52.604,15.151 51.745,15.151 50.906,15.234L50.964,17.391C52.526,17.286 54.297,17.391 56.24,17.661L56.24,15.448C55.297,15.339 54.385,15.245 53.495,15.198ZM57.854,15.609L57.854,17.828C58.229,17.88 58.557,17.938 58.932,17.99C60.333,18.203 61.734,18.422 63.188,18.583L63.135,16.37C61.844,16.208 60.547,16.042 59.255,15.828C58.771,15.771 58.339,15.719 57.854,15.609ZM35.224,15.771C35.063,15.828 34.958,15.828 34.797,15.828C33.5,16.042 32.208,16.208 30.917,16.37L30.859,18.583C32.318,18.422 33.719,18.203 35.12,17.99L35.224,17.99L35.224,15.771ZM41.078,20.12C39.13,20.177 37.047,20.474 34.901,20.797L34.901,23.01C35.01,23.01 35.063,23.01 35.172,22.958C38.083,22.526 40.724,22.151 42.932,22.313L42.984,20.146C42.365,20.109 41.729,20.099 41.078,20.12ZM51.125,20.146L51.177,22.313C52.578,22.203 54.135,22.313 55.807,22.526L55.807,20.365C54.135,20.203 52.578,20.094 51.125,20.146ZM57.422,20.526L57.422,22.745C57.911,22.797 58.448,22.906 58.932,22.958C60.385,23.172 61.844,23.385 63.354,23.552L63.297,21.339C61.953,21.177 60.604,20.964 59.255,20.797C58.661,20.693 58.016,20.635 57.422,20.526ZM33.234,21.016C32.422,21.125 31.563,21.229 30.755,21.339L30.698,23.552L33.286,23.229L33.286,21.016L33.234,21.016ZM427.271,23.984L442.458,65.854L412.823,65.854L427.266,23.984L427.271,23.984ZM51.292,25.063L51.344,27.224C53.125,27.12 55.224,27.333 57.432,27.656L57.432,25.5C55.276,25.177 53.177,24.958 51.292,25.063ZM42.776,25.115C40.948,25.01 38.953,25.229 36.849,25.5L36.849,27.714C39.005,27.385 41,27.172 42.724,27.281L42.776,25.115ZM59.099,25.661L59.099,27.927L59.047,27.927C60.5,28.141 62.01,28.359 63.573,28.526L63.521,26.307C62.068,26.146 60.661,25.932 59.318,25.714C59.266,25.714 59.208,25.714 59.099,25.661ZM35.234,25.714C35.068,25.714 34.964,25.766 34.854,25.766C33.453,25.984 32.052,26.198 30.651,26.359L30.599,28.578C32.161,28.417 33.724,28.198 35.234,27.979L35.339,27.979L35.339,25.714L35.234,25.714ZM154.76,126.88L151.578,127.245L144.297,127.302L135.771,127.245L135.771,132.339L136.906,132.339L138.25,128.714L142.729,128.615L142.729,146.099L139.167,146.464L139.328,147.464L144.297,147.354L149.094,147.464L149.26,146.464L145.859,146.099L145.859,128.615L151.901,128.714L152.979,128.557L152.979,146.255L151.198,146.521L151.359,147.51L154.49,147.411L157.297,147.51L157.458,146.521L155.839,146.255L155.839,137.693L156.703,137.172C157.781,136.49 158.917,135.859 159.833,135.859C161.021,135.859 161.719,136.49 161.719,138.01L161.719,146.255L160.266,146.521L160.427,147.516L163.229,147.411L166.573,147.464L166.734,146.464L164.526,146.203L164.526,138.536C164.526,134.859 163.88,133.495 160.104,133.495L155.786,136.224L155.786,126.88L154.76,126.88ZM476.984,126.984L475.198,127.458L467.865,146.146L465.542,146.464L465.703,147.464L468.891,147.354L472.453,147.464L472.615,146.464L470.021,146.099L471.969,140.687L471.969,140.745L479.245,140.745L481.24,146.146L478.708,146.521L478.87,147.51L482.807,147.411L486.911,147.51L487.073,146.521L484.75,146.203L476.984,126.984ZM346.052,127.089L343.573,129.823C342.495,130.979 341.958,132.13 341.958,133.859L341.958,134.125L340.229,134.125L339.313,135.125L339.313,135.594L341.901,135.594L341.901,146.255L339.797,146.521L339.958,147.51L343.359,147.411L347.943,147.51L348.104,146.411L344.703,146.203L344.703,135.547L348.427,135.547L348.427,134.177L344.703,134.177L344.703,133.443C344.703,131.552 344.922,130.714 345.354,130.187L345.943,129.401L349.776,129.401L349.776,127.089L346.052,127.089ZM187.229,127.245L187.068,128.245L189.766,128.615L189.766,140.323C189.766,144.943 191.87,147.99 197.698,147.99C203.63,146.625 205.193,144.156 205.193,140.375L205.193,128.615L207.734,128.245L207.573,127.25L204.115,127.349L200.339,127.25L200.177,128.245L202.771,128.557L202.771,140.635C202.771,144.365 201.042,146.359 197.969,146.359C194.568,146.359 193.005,144.312 193.005,140.745L193.005,128.615L195.536,128.245L195.375,127.245L191.328,127.349L187.229,127.245ZM357.75,127.302L357.75,132.391L358.938,132.391L360.281,128.714L364.76,128.667L364.76,146.146L361.203,146.521L361.365,147.516L366.328,147.411L371.13,147.516L371.24,146.521L367.839,146.146L367.839,128.667L372.318,128.714L373.661,132.391L374.797,132.391L374.797,127.302L366.276,127.406L357.75,127.302ZM229.411,127.349L227.255,127.51L226.984,128.875L227.151,130.5L227.958,130.661L230.057,130.5L230.38,129.135L230.219,127.51L229.411,127.349ZM290.859,127.349L288.698,127.51L288.427,128.875L288.589,130.5L289.401,130.661L291.505,130.5L291.828,129.135L291.667,127.51L290.859,127.349ZM530.708,127.349L528.547,127.51L528.276,128.875L528.438,130.5L529.245,130.661L531.354,130.5L531.677,129.135L531.516,127.51L530.708,127.349ZM475.677,130.135L475.896,131.714L478.703,139.323L472.391,139.323L475.677,130.135ZM298.953,130.292L297.01,132.182L297.01,134.073L295.068,134.073L294.042,135.068L294.042,135.547L296.901,135.547L296.901,144.156C296.901,146.781 297.333,147.932 300.677,147.932L304.401,145.943L303.917,144.943C303.109,145.312 302.188,145.729 301.323,145.729C300.083,145.729 299.76,144.839 299.76,144L299.76,135.177L304.24,135.177L309.203,147.354L310.391,146.99L307.417,151.344L304.885,151.344L304.885,154.344L308.448,154.344L311.792,147.042L316.589,135.224L318.479,134.911L318.318,133.917L315.839,134.021L313.25,133.917L313.089,134.911L314.432,135.224L310.766,145.677L310.552,143.682L307.255,135.224L309.203,134.911L309.042,133.917L299.708,133.917L299.708,130.292L298.953,130.292ZM454.208,130.292L452.26,132.182L452.26,134.073L450.323,134.073L449.297,135.068L449.297,135.547L452.156,135.547L452.156,144.156C452.156,146.781 452.589,147.932 455.932,147.932L459.385,146.047L458.901,145.047C458.036,145.411 457.391,145.729 456.526,145.729C455.286,145.729 454.964,144.839 454.964,144L454.964,135.547L459.443,135.547L459.443,134.234L454.964,134.234L454.964,130.292L454.208,130.292ZM519.536,130.292L517.594,132.182L517.594,134.073L515.656,134.073L514.625,135.068L514.625,135.547L517.484,135.547L517.484,144.156C517.484,146.781 517.917,147.932 521.266,147.932L524.714,146.047L524.229,145.047C523.417,145.411 522.771,145.729 521.911,145.729C520.672,145.729 520.349,144.839 520.349,144L520.349,135.547L524.766,135.547L524.766,134.234L520.292,134.234L520.292,130.292L519.536,130.292ZM280.078,133.339C276.625,134.073 274.688,135.229 274.688,137.224C274.688,138.849 275.87,139.953 277.167,140.583L279.484,141.792C281.052,142.578 281.641,143.104 281.641,144.208C281.641,145.417 280.833,146.411 279.271,146.411C278.354,146.411 277.49,146.099 276.839,145.677L275.818,143.26L273.927,143.26L274.469,146.521C275.281,146.937 277.161,147.833 278.995,147.833C282.396,147.094 284.557,146.151 284.557,143.526C284.557,141.896 283.745,140.797 281.75,139.797L279.484,138.693C278.193,138.062 277.432,137.49 277.432,136.542C277.432,135.495 278.568,134.859 279.703,134.859C280.781,134.859 281.641,135.333 281.964,135.49L282.719,137.536L284.286,137.536L284.286,134.651C283.422,134.021 281.698,133.339 280.078,133.339ZM423.141,133.339C419.687,134.073 417.745,135.229 417.745,137.224C417.745,138.849 418.932,139.953 420.229,140.583L422.547,141.792C424.109,142.578 424.708,143.104 424.708,144.208C424.708,145.417 423.896,146.411 422.333,146.411C421.417,146.411 420.552,146.099 419.906,145.677L418.875,143.26L416.99,143.26L417.531,146.521C418.339,146.937 420.281,147.833 422.062,147.833C425.458,147.094 427.62,146.151 427.62,143.526C427.62,141.896 426.812,140.797 424.818,139.797L422.547,138.693C421.25,138.062 420.5,137.49 420.5,136.542C420.5,135.495 421.63,134.859 422.76,134.859C423.844,134.859 424.708,135.333 425.031,135.49L425.786,137.536L427.349,137.536L427.349,134.651C426.484,134.021 424.76,133.339 423.141,133.339ZM509.13,133.339C505.677,134.073 503.734,135.229 503.734,137.224C503.734,138.849 504.927,139.953 506.219,140.583L508.536,141.792C510.047,142.578 510.698,143.104 510.698,144.208C510.698,145.417 509.885,146.411 508.323,146.411C507.406,146.411 506.542,146.099 505.896,145.677L504.87,143.26L502.979,143.26L503.521,146.521C504.328,146.937 506.219,147.833 508.052,147.833C511.448,147.094 513.609,146.151 513.609,143.526C513.609,141.896 512.802,140.797 510.807,139.797L508.536,138.693C507.245,138.062 506.49,137.49 506.49,136.542C506.49,135.495 507.62,134.859 508.755,134.859C509.833,134.859 510.75,135.333 511.021,135.49L511.776,137.536L513.339,137.536L513.339,134.651C512.469,134.021 510.745,133.339 509.13,133.339ZM174.719,133.443C170.672,134.286 168.026,136.594 168.026,140.844C168.026,145.411 171.266,147.88 174.88,147.88C176.771,147.406 178.656,146.568 180.057,145.625L179.573,144.521C178.443,145.203 177.036,145.729 175.849,145.729C172.776,145.729 170.943,143.422 170.943,140.109L170.943,140.057L179.953,140.057L179.953,138.849C179.953,135.854 178.656,133.443 174.719,133.443ZM254.932,133.443C250.891,134.286 248.245,136.594 248.245,140.844C248.245,145.411 251.479,147.88 255.094,147.88C256.984,147.406 258.875,146.568 260.281,145.625L259.792,144.521C258.656,145.203 257.255,145.729 256.073,145.729C252.995,145.729 251.161,143.422 251.161,140.109L251.161,140.057L260.172,140.057L260.172,138.849C260.172,135.854 258.87,133.443 254.932,133.443ZM331.375,133.443C326.792,134.234 324.094,136.646 324.094,141C324.094,144.885 326.792,147.88 330.729,147.88C335.313,147.146 338.016,144.682 338.016,140.375C338.016,136.437 335.365,133.443 331.375,133.443ZM380.25,133.443C376.203,134.286 373.563,136.594 373.563,140.844C373.563,145.411 376.74,147.88 380.354,147.88C382.245,147.406 384.135,146.568 385.542,145.625L385.052,144.521C383.917,145.203 382.521,145.729 381.333,145.729C378.255,145.729 376.422,143.422 376.422,140.109L376.422,140.057L385.484,140.057L385.484,138.849C385.484,135.854 384.188,133.443 380.25,133.443ZM409.057,133.443L403.661,135.802L403.661,138.01L406.198,138.01L406.682,135.703C407.333,135.437 408.302,135.177 409.109,135.177C410.672,135.177 410.839,136.224 410.839,137.958L410.839,139.375L404.146,141.531C403.5,142.422 403.125,143.156 403.125,144.208C403.125,146.521 404.958,147.88 407.495,147.88L411.052,145.365L411.969,147.568L415.802,146.833L415.693,145.833L414.24,145.833C413.969,145.359 413.75,144.943 413.75,143.682L413.75,138.01C413.75,134.391 412.776,133.443 409.057,133.443ZM442.661,133.443L437.38,135.802L437.38,138.01L439.917,138.01L440.401,135.703C441.047,135.437 442.016,135.177 442.828,135.177C444.391,135.177 444.557,136.224 444.557,137.958L444.557,139.375L437.865,141.531C437.214,142.422 436.839,143.156 436.839,144.208C436.839,146.521 438.672,147.88 441.208,147.88L444.719,145.365L445.635,147.568L449.464,146.833L449.354,145.833L447.849,145.833C447.578,145.359 447.359,144.943 447.359,143.682L447.359,138.01C447.359,134.391 446.385,133.443 442.667,133.443L442.661,133.443ZM217.438,133.495L213.068,136.276L212.906,133.859L211.609,133.969L208.052,134.859L208.214,135.859L210.26,135.703L210.26,146.255L208.214,146.521L208.375,147.51L211.776,147.411L214.63,147.568L214.792,146.568L213.177,146.307L213.177,137.745L214.042,137.172C215.063,136.484 216.089,135.859 217.115,135.859C218.354,135.859 219.057,136.49 219.057,138.01L219.057,146.255L217.547,146.521L217.708,147.51L220.563,147.411L223.964,147.51L224.125,146.521L221.865,146.255L221.865,138.224C221.865,134.755 221.214,133.495 217.438,133.495ZM544.141,133.495L539.771,136.276L539.609,133.859L538.313,133.969L534.755,134.859L534.917,135.859L536.964,135.703L536.964,146.255L534.917,146.521L535.078,147.51L538.474,147.411L541.281,147.568L541.443,146.568L539.823,146.307L539.823,137.745L540.74,137.172C541.766,136.484 542.786,135.859 543.813,135.859C545.052,135.859 545.755,136.49 545.755,138.01L545.755,146.255L544.25,146.521L544.411,147.51L547.266,147.411L550.667,147.51L550.828,146.521L548.563,146.255L548.563,138.224C548.563,134.755 547.917,133.495 544.141,133.495ZM270.26,133.599L266.859,137.646L266.75,133.812L265.568,133.917L262.005,134.812L262.167,135.802L264.214,135.646L264.214,146.203L262.167,146.464L262.328,147.464L265.672,147.354L269.99,147.464L270.151,146.359L267.021,146.099L267.021,139.219L267.615,138.536C268.422,137.589 269.719,136.646 270.422,136.49L272.63,136.49L272.63,133.599L270.26,133.599ZM490.943,133.812L489.484,133.917L485.922,134.651L486.089,135.755L488.193,135.594L488.193,143.156C488.193,146.516 488.839,147.88 492.776,147.88L497.094,145.255L497.901,147.62L501.734,146.885L501.625,145.885L500.115,145.885C499.896,145.417 499.734,144.995 499.734,143.734L499.734,133.812L498.224,133.917L494.932,134.651L495.094,135.755L496.88,135.594L496.88,143.734L496.286,144.099C495.151,144.839 493.964,145.568 493.047,145.568C491.594,145.568 490.943,144.943 490.943,143.422L490.943,133.812ZM230.12,133.859L228.609,133.969L225.047,134.859L225.208,135.859L227.26,135.703L227.26,146.255L225.208,146.521L225.37,147.51L228.771,147.411L232.172,147.51L232.333,146.521L230.12,146.255L230.12,133.859ZM232.604,133.859L232.443,134.859L234.271,135.177L239.453,147.932L241.609,147.042L246.469,135.177L248.354,134.859L248.193,133.859L245.714,133.969L243.12,133.859L242.958,134.859L244.307,135.177L240.698,145.625L240.583,143.63L237.349,135.177L239.292,134.859L239.13,133.859L236,133.969L232.604,133.859ZM291.453,133.859L290,133.969L286.438,134.859L286.599,135.859L288.651,135.703L288.651,146.255L286.599,146.521L286.76,147.51L290.161,147.411L293.51,147.51L293.672,146.521L291.453,146.255L291.453,133.859ZM386.995,133.859L386.833,134.911L388.667,135.224L392.979,140.953L388.609,146.203L386.51,146.464L386.672,147.464L389.74,147.354L392.063,147.464L392.224,146.464L390.771,146.255L393.896,141.844L394.115,142.526L396.755,146.255L395.521,146.521L395.682,147.51L398.484,147.411L401.88,147.51L402.042,146.521L400.214,146.255L395.573,139.849L399.505,135.224L401.667,134.911L401.505,133.859L398.427,133.969L396.109,133.859L395.948,134.911L397.406,135.224L394.599,139.167L394.38,138.432L392.172,135.224L393.359,134.911L393.198,133.859L390.396,133.969L386.995,133.859ZM531.297,133.859L529.844,133.969L526.281,134.859L526.443,135.859L528.49,135.703L528.49,146.255L526.443,146.521L526.604,147.51L530.005,147.411L533.344,147.51L533.505,146.521L531.297,146.255L531.297,133.859ZM174.125,134.859C176.448,134.859 176.875,136.437 176.875,138.641L170.943,138.901C171.156,136.49 172.292,134.859 174.125,134.859ZM254.396,134.859C256.714,134.859 257.146,136.437 257.146,138.641L251.214,138.901C251.432,136.49 252.563,134.859 254.396,134.859ZM330.729,134.859C333.266,134.859 335.099,137.328 335.099,141C335.099,144.099 333.854,146.464 331.484,146.464C328.839,146.464 327.057,143.682 327.115,140.375C327.115,137.224 328.302,134.859 330.729,134.859ZM379.604,134.859C381.922,134.859 382.354,136.437 382.354,138.641L376.422,138.901C376.641,136.49 377.823,134.859 379.604,134.859ZM410.896,140.531L410.896,144.312L409.656,145.151C409.276,145.417 408.516,145.885 407.708,145.885C406.844,145.885 405.984,145.359 405.984,143.891C405.984,143.26 406.146,142.687 406.578,142.266L410.891,140.531L410.896,140.531ZM444.5,140.531L444.5,144.312L443.26,145.151C442.885,145.417 442.125,145.885 441.318,145.885C440.453,145.885 439.594,145.359 439.594,143.891C439.594,143.26 439.755,142.687 440.187,142.266L444.5,140.531Z" style="fill:rgb(106,111,114);fill-rule:nonzero;"/>
</svg>
